_Griffith_Gothic-Bold_WebTT.ufo
<glyph name="exclam" format="1">
  <advance width="534.528"/>
  <unicode hex="0021"/>
  <outline>
    <contour>
      <point x="268" y="254" type="qcurve" smooth="yes"/>
      <point x="324.71641791" y="254.0"/>
      <point x="401.0" y="177.208955224"/>
      <point x="401" y="119" type="qcurve" smooth="yes"/>
      <point x="401.0" y="62.2835820896"/>
      <point x="324.71641791" y="-14.0"/>
      <point x="268" y="-14" type="qcurve" smooth="yes"/>
      <point x="209.791044776" y="-14.0"/>
      <point x="133.0" y="62.2835820896"/>
      <point x="133" y="119" type="qcurve" smooth="yes"/>
      <point x="133.0" y="177.208955224"/>
      <point x="209.791044776" y="254.0"/>
    </contour>
    <contour>
      <point x="133" y="1475" type="line"/>
      <point x="401" y="1475" type="line"/>
      <point x="330" y="453" type="line"/>
      <point x="205" y="453" type="line"/>
    </contour>
  </outline>
</glyph>
<glyph name="quotedbl" format="1">
  <advance width="790.528"/>
  <unicode hex="0022"/>
  <outline>
    <contour>
      <point x="96" y="1475" type="line"/>
      <point x="330" y="1475" type="line"/>
      <point x="272" y="969" type="line"/>
      <point x="154" y="969" type="line"/>
    </contour>
    <contour>
      <point x="461" y="1475" type="line"/>
      <point x="694" y="1475" type="line"/>
      <point x="637" y="969" type="line"/>
      <point x="518" y="969" type="line"/>
    </contour>
  </outline>
</glyph>
<glyph name="numbersign" format="1">
  <advance width="1288.192"/>
  <unicode hex="0023"/>
  <outline>
    <contour>
      <point x="1231" y="1106" type="line"/>
      <point x="1231" y="928" type="line"/>
      <point x="979" y="928" type="line"/>
      <point x="915" y="547" type="line"/>
      <point x="1161" y="547" type="line"/>
      <point x="1161" y="369" type="line"/>
      <point x="885" y="369" type="line"/>
      <point x="823" y="0" type="line"/>
      <point x="698" y="0" type="line"/>
      <point x="760" y="369" type="line"/>
      <point x="401" y="369" type="line"/>
      <point x="340" y="0" type="line"/>
      <point x="217" y="0" type="line"/>
      <point x="279" y="369" type="line"/>
      <point x="57" y="369" type="line"/>
      <point x="57" y="547" type="line"/>
      <point x="309" y="547" type="line"/>
      <point x="373" y="928" type="line"/>
      <point x="127" y="928" type="line"/>
      <point x="127" y="1106" type="line"/>
      <point x="403" y="1106" type="line"/>
      <point x="465" y="1475" type="line"/>
      <point x="588" y="1475" type="line"/>
      <point x="528" y="1106" type="line"/>
      <point x="885" y="1106" type="line"/>
      <point x="946" y="1475" type="line"/>
      <point x="1071" y="1475" type="line"/>
      <point x="1008" y="1106" type="line"/>
    </contour>
    <contour>
      <point x="793" y="543" type="line"/>
      <point x="858" y="932" type="line"/>
      <point x="496" y="932" type="line"/>
      <point x="430" y="543" type="line"/>
    </contour>
  </outline>
</glyph>
<glyph name="dollar" format="1">
  <advance width="1161.216"/>
  <unicode hex="0024"/>
  <outline>
    <contour>
      <point x="637" y="836" type="line"/>
      <point x="892.223880597" y="756.149253731"/>
      <point x="1096.0" y="566.164179104"/>
      <point x="1096" y="399" type="qcurve" smooth="yes"/>
      <point x="1096.0" y="222.134328358"/>
      <point x="841.029850746" y="13.4328358209"/>
      <point x="647" y="0" type="qcurve"/>
      <point x="647" y="-195" type="line"/>
      <point x="516" y="-195" type="line"/>
      <point x="516" y="2" type="line"/>
      <point x="374.208955224" y="12.447761194"/>
      <point x="141.805970149" y="118.701492537"/>
      <point x="53" y="209" type="qcurve"/>
      <point x="172" y="346" type="line"/>
      <point x="249.611940299" y="268.388059701"/>
      <point x="422.776119403" y="172.447761194"/>
      <point x="528" y="162" type="qcurve"/>
      <point x="528" y="682" type="line"/>
      <point x="304.865671642" y="749.164179104"/>
      <point x="98.0" y="936.567164179"/>
      <point x="98" y="1100" type="qcurve" smooth="yes"/>
      <point x="98.0" y="1261.94029851"/>
      <point x="332.417910448" y="1463.80597015"/>
      <point x="516" y="1475" type="qcurve"/>
      <point x="516" y="1561" type="line"/>
      <point x="647" y="1561" type="line"/>
      <point x="647" y="1473" type="line"/>
      <point x="769.388059701" y="1463.29850746"/>
      <point x="957.432835821" y="1375.85074627"/>
      <point x="1044" y="1296" type="qcurve"/>
      <point x="926" y="1159" type="line"/>
      <point x="858.835820896" y="1223.17910448"/>
      <point x="721.328358209" y="1300.31343284"/>
      <point x="637" y="1313" type="qcurve"/>
    </contour>
    <contour>
      <point x="295" y="1110" type="qcurve" smooth="yes"/>
      <point x="295.0" y="1025.67164179"/>
      <point x="407.850746269" y="912.776119403"/>
      <point x="528" y="868" type="qcurve"/>
      <point x="528" y="1317" type="line"/>
      <point x="413.820895522" y="1311.02985075"/>
      <point x="295.0" y="1200.29850746"/>
    </contour>
    <contour>
      <point x="637" y="156" type="line"/>
      <point x="759.388059701" y="164.955223881"/>
      <point x="899.0" y="285.268656716"/>
      <point x="899" y="389" type="qcurve" smooth="yes"/>
      <point x="899.0" y="479.298507463"/>
      <point x="788.492537313" y="596.52238806"/>
      <point x="637" y="651" type="qcurve"/>
    </contour>
  </outline>
</glyph>
<glyph name="parenleft" format="1">
  <advance width="702.464"/>
  <unicode hex="0028"/>
  <outline>
    <contour>
      <point x="334" y="655" type="qcurve" smooth="yes"/>
      <point x="334.0" y="409.47761194"/>
      <point x="495.537313433" y="-6.94029850746"/>
      <point x="653" y="-195" type="qcurve"/>
      <point x="461" y="-195" type="line"/>
      <point x="316.970149254" y="-46.4925373134"/>
      <point x="100.0" y="372.164179104"/>
      <point x="100" y="655" type="qcurve" smooth="yes"/>
      <point x="100.0" y="937.835820896"/>
      <point x="316.970149254" y="1357.23880597"/>
      <point x="461" y="1505" type="qcurve"/>
      <point x="653" y="1505" type="line"/>
      <point x="495.537313433" y="1316.94029851"/>
      <point x="334.0" y="901.268656716"/>
    </contour>
  </outline>
</glyph>
<glyph name="comma" format="1">
  <advance width="430.08"/>
  <unicode hex="002C"/>
  <outline>
    <contour>
      <point x="121" y="266" type="line"/>
      <point x="362" y="266" type="line"/>
      <point x="186" y="-240" type="line"/>
      <point x="59" y="-240" type="line"/>
    </contour>
  </outline>
</glyph>
<glyph name="period" format="1">
  <advance width="430.08"/>
  <unicode hex="002E"/>
  <outline>
    <contour>
      <point x="215" y="262" type="qcurve" smooth="yes"/>
      <point x="274.701492537" y="262.0"/>
      <point x="354.0" y="183.208955224"/>
      <point x="354" y="125" type="qcurve" smooth="yes"/>
      <point x="354.0" y="65.2985074627"/>
      <point x="274.701492537" y="-14.0"/>
      <point x="215" y="-14" type="qcurve" smooth="yes"/>
      <point x="155.298507463" y="-14.0"/>
      <point x="78.0" y="65.2985074627"/>
      <point x="78" y="125" type="qcurve" smooth="yes"/>
      <point x="78.0" y="183.208955224"/>
      <point x="155.298507463" y="262.0"/>
    </contour>
  </outline>
</glyph>
<glyph name="one" format="1">
  <advance width="917.504"/>
  <unicode hex="0031"/>
  <outline>
    <contour>
      <point x="874" y="147" type="line"/>
      <point x="874" y="0" type="line"/>
      <point x="94" y="0" type="line"/>
      <point x="94" y="147" type="line"/>
      <point x="375" y="147" type="line"/>
      <point x="375" y="1327" type="line"/>
      <point x="70" y="1327" type="line"/>
      <point x="70" y="1475" type="line"/>
      <point x="602" y="1475" type="line"/>
      <point x="602" y="147" type="line"/>
    </contour>
  </outline>
</glyph>
<glyph name="two" format="1">
  <advance width="1146.88"/>
  <unicode hex="0032"/>
  <outline>
    <contour>
      <point x="1051" y="170" type="line"/>
      <point x="1051" y="0" type="line"/>
      <point x="100" y="0" type="line"/>
      <point x="100" y="143" type="line"/>
      <point x="155.223880597" y="304.940298507"/>
      <point x="367.417910448" y="557.701492537"/>
      <point x="551" y="698" type="qcurve" smooth="yes"/>
      <point x="680.850746269" y="795.76119403"/>
      <point x="811.0" y="962.313432836"/>
      <point x="811" y="1075" type="qcurve" smooth="yes"/>
      <point x="811.0" y="1185.44776119"/>
      <point x="689.417910448" y="1327.0"/>
      <point x="573" y="1327" type="qcurve" smooth="yes"/>
      <point x="472.253731343" y="1327.0"/>
      <point x="326.656716418" y="1200.79104478"/>
      <point x="258" y="1059" type="qcurve"/>
      <point x="84" y="1141" type="line"/>
      <point x="163.104477612" y="1313.3880597"/>
      <point x="401.910447761" y="1499.0"/>
      <point x="584" y="1499" type="qcurve" smooth="yes"/>
      <point x="811.611940299" y="1499.0"/>
      <point x="1032.0" y="1258.6119403"/>
      <point x="1032" y="1081" type="qcurve" smooth="yes"/>
      <point x="1032.0" y="908.611940299"/>
      <point x="859.641791045" y="693.388059701"/>
      <point x="688" y="571" type="qcurve" smooth="yes"/>
      <point x="538.0" y="462.791044776"/>
      <point x="369.074626866" y="278.208955224"/>
      <point x="334" y="170" type="qcurve"/>
    </contour>
  </outline>
</glyph>
<glyph name="three" format="1">
  <advance width="1091.584"/>
  <unicode hex="0033"/>
  <outline>
    <contour>
      <point x="621" y="825" type="line"/>
      <point x="793.388059701" y="840.671641791"/>
      <point x="1024.0" y="684.895522388"/>
      <point x="1024" y="514" type="qcurve" smooth="yes"/>
      <point x="1024.0" y="261.76119403"/>
      <point x="478.820895522" y="-14.9850746269"/>
      <point x="43" y="-12" type="qcurve"/>
      <point x="43" y="154" type="line"/>
      <point x="397.47761194" y="156.985074627"/>
      <point x="795.0" y="348.567164179"/>
      <point x="795" y="512" type="qcurve" smooth="yes"/>
      <point x="795.0" y="614.23880597"/>
      <point x="672.492537313" y="713.0"/>
      <point x="571" y="713" type="qcurve" smooth="yes"/>
      <point x="509.805970149" y="713.0"/>
      <point x="415.0" y="694.417910448"/>
      <point x="365" y="678" type="qcurve"/>
      <point x="311" y="819" type="line"/>
      <point x="534.134328358" y="904.820895522"/>
      <point x="721.0" y="1046.79104478"/>
      <point x="721" y="1155" type="qcurve" smooth="yes"/>
      <point x="721.0" y="1234.85074627"/>
      <point x="620.298507463" y="1331.0"/>
      <point x="530" y="1331" type="qcurve" smooth="yes"/>
      <point x="447.910447761" y="1331.0"/>
      <point x="285.567164179" y="1241.29850746"/>
      <point x="199" y="1151" type="qcurve"/>
      <point x="78" y="1268" type="line"/>
      <point x="178.746268657" y="1373.2238806"/>
      <point x="410.492537313" y="1499.0"/>
      <point x="559" y="1499" type="qcurve" smooth="yes"/>
      <point x="744.074626866" y="1499.0"/>
      <point x="942.0" y="1326.32835821"/>
      <point x="942" y="1192" type="qcurve" smooth="yes"/>
      <point x="942.0" y="1065.13432836"/>
      <point x="768.0" y="896.686567164"/>
      <point x="618" y="834" type="qcurve"/>
    </contour>
  </outline>
</glyph>
<glyph name="four" format="1">
  <advance width="1218.56"/>
  <unicode hex="0034"/>
  <outline>
    <contour>
      <point x="1157" y="526" type="line"/>
      <point x="1157" y="391" type="line"/>
      <point x="963" y="391" type="line"/>
      <point x="963" y="0" type="line"/>
      <point x="739" y="0" type="line"/>
      <point x="739" y="391" type="line"/>
      <point x="68" y="391" type="line"/>
      <point x="68" y="569" type="line"/>
      <point x="666" y="1475" type="line"/>
      <point x="963" y="1475" type="line"/>
      <point x="963" y="526" type="line"/>
    </contour>
    <contour>
      <point x="225" y="526" type="line"/>
      <point x="739" y="526" type="line"/>
      <point x="739" y="1288" type="line"/>
      <point x="717" y="1288" type="line"/>
      <point x="225" y="549" type="line"/>
    </contour>
  </outline>
</glyph>
<glyph name="five" format="1">
  <advance width="1136.64"/>
  <unicode hex="0035"/>
  <outline>
    <contour>
      <point x="1057" y="518" type="qcurve" smooth="yes"/>
      <point x="1057" y="502" type="line" smooth="yes"/>
      <point x="1057.0" y="239.313432836"/>
      <point x="725.805970149" y="-20.0"/>
      <point x="487" y="-20" type="qcurve" smooth="yes"/>
      <point x="357.149253731" y="-20.0"/>
      <point x="167.955223881" y="20.7462686567"/>
      <point x="59" y="70" type="qcurve"/>
      <point x="121" y="242" type="line"/>
      <point x="223.23880597" y="194.23880597"/>
      <point x="385.71641791" y="158.0"/>
      <point x="479" y="158" type="qcurve" smooth="yes"/>
      <point x="637.955223881" y="158.0"/>
      <point x="825.0" y="337.552238806"/>
      <point x="825" y="498" type="qcurve" smooth="yes"/>
      <point x="825" y="506" type="line" smooth="yes"/>
      <point x="825.0" y="643.313432836"/>
      <point x="691.895522388" y="788.0"/>
      <point x="571" y="788" type="qcurve" smooth="yes"/>
      <point x="493.388059701" y="788.0"/>
      <point x="377.208955224" y="727.492537313"/>
      <point x="319" y="676" type="qcurve"/>
      <point x="135" y="676" type="line"/>
      <point x="207" y="1475" type="line"/>
      <point x="977" y="1475" type="line"/>
      <point x="977" y="1292" type="line"/>
      <point x="360" y="1292" type="line"/>
      <point x="313" y="827" type="line"/>
      <point x="330" y="827" type="line"/>
      <point x="394.179104478" y="886.701492537"/>
      <point x="533.805970149" y="954.0"/>
      <point x="645" y="954" type="qcurve" smooth="yes"/>
      <point x="830.074626866" y="954.0"/>
      <point x="1057.0" y="730.686567164"/>
    </contour>
  </outline>
</glyph>
<glyph name="seven" format="1">
  <advance width="1062.912"/>
  <unicode hex="0037"/>
  <outline>
    <contour>
      <point x="1030" y="1475" type="line"/>
      <point x="1030" y="1339" type="line"/>
      <point x="840.447761194" y="1077.80597015"/>
      <point x="511.402985075" y="341.044776119"/>
      <point x="442" y="0" type="qcurve"/>
      <point x="205" y="0" type="line"/>
      <point x="299.776119403" y="405.223880597"/>
      <point x="637.253731343" y="1079.55223881"/>
      <point x="788" y="1290" type="qcurve"/>
      <point x="41" y="1290" type="line"/>
      <point x="41" y="1475" type="line"/>
    </contour>
  </outline>
</glyph>
<glyph name="colon" format="1">
  <advance width="462.848"/>
  <unicode hex="003A"/>
  <outline>
    <contour>
      <point x="231" y="262" type="qcurve" smooth="yes"/>
      <point x="290.701492537" y="262.0"/>
      <point x="371.0" y="183.208955224"/>
      <point x="371" y="125" type="qcurve" smooth="yes"/>
      <point x="371.0" y="65.2985074627"/>
      <point x="290.701492537" y="-14.0"/>
      <point x="231" y="-14" type="qcurve" smooth="yes"/>
      <point x="172.044776119" y="-14.0"/>
      <point x="94.0" y="65.2985074627"/>
      <point x="94" y="125" type="qcurve" smooth="yes"/>
      <point x="94.0" y="183.208955224"/>
      <point x="172.044776119" y="262.0"/>
    </contour>
    <contour>
      <point x="231" y="1085" type="qcurve" smooth="yes"/>
      <point x="290.701492537" y="1085.0"/>
      <point x="371.0" y="1005.70149254"/>
      <point x="371" y="946" type="qcurve" smooth="yes"/>
      <point x="371.0" y="886.298507463"/>
      <point x="290.701492537" y="807.0"/>
      <point x="231" y="807" type="qcurve" smooth="yes"/>
      <point x="172.044776119" y="807.0"/>
      <point x="94.0" y="886.298507463"/>
      <point x="94" y="946" type="qcurve" smooth="yes"/>
      <point x="94.0" y="1005.70149254"/>
      <point x="172.044776119" y="1085.0"/>
    </contour>
  </outline>
</glyph>
<glyph name="less" format="1">
  <advance width="1228.8"/>
  <unicode hex="003C"/>
  <outline>
    <contour>
      <point x="1122" y="381" type="line"/>
      <point x="1122" y="182" type="line"/>
      <point x="92" y="635" type="line"/>
      <point x="92" y="819" type="line"/>
      <point x="1122" y="1272" type="line"/>
      <point x="1122" y="1073" type="line"/>
      <point x="305" y="727" type="line"/>
    </contour>
  </outline>
</glyph>
<glyph name="E" format="1">
  <advance width="1144.832"/>
  <unicode hex="0045"/>
  <outline>
    <contour>
      <point x="1075" y="182" type="line"/>
      <point x="1075" y="0" type="line"/>
      <point x="147" y="0" type="line"/>
      <point x="147" y="1475" type="line"/>
      <point x="1051" y="1475" type="line"/>
      <point x="1051" y="1292" type="line"/>
      <point x="377" y="1292" type="line"/>
      <point x="377" y="854" type="line"/>
      <point x="913" y="854" type="line"/>
      <point x="913" y="680" type="line"/>
      <point x="377" y="680" type="line"/>
      <point x="377" y="182" type="line"/>
    </contour>
  </outline>
</glyph>
<glyph name="G" format="1">
  <advance width="1296.384"/>
  <unicode hex="0047"/>
  <outline>
    <contour>
      <point x="1192" y="698" type="line"/>
      <point x="1192" y="-2" type="line"/>
      <point x="1090" y="-2" type="line"/>
      <point x="1063" y="360" type="line"/>
      <point x="1053" y="360" type="line"/>
      <point x="1000.76119403" y="183.134328358"/>
      <point x="797.388059701" y="-25.0"/>
      <point x="625" y="-25" type="qcurve" smooth="yes"/>
      <point x="380.223880597" y="-25.0"/>
      <point x="94.0" y="363.955223881"/>
      <point x="94" y="705" type="qcurve" smooth="yes"/>
      <point x="94" y="766" type="line" smooth="yes"/>
      <point x="94.0" y="1108.53731343"/>
      <point x="392.253731343" y="1499.0"/>
      <point x="643" y="1499" type="qcurve" smooth="yes"/>
      <point x="861.656716418" y="1499.0"/>
      <point x="1097.23880597" y="1263.05970149"/>
      <point x="1145" y="1075" type="qcurve"/>
      <point x="924" y="1016" type="line"/>
      <point x="890.417910448" y="1160.7761194"/>
      <point x="756.432835821" y="1319.0"/>
      <point x="643" y="1319" type="qcurve" smooth="yes"/>
      <point x="488.52238806" y="1319.0"/>
      <point x="336.0" y="1029.56716418"/>
      <point x="336" y="793" type="qcurve" smooth="yes"/>
      <point x="336" y="684" type="line" smooth="yes"/>
      <point x="336.0" y="442.208955224"/>
      <point x="496.492537313" y="156.0"/>
      <point x="645" y="156" type="qcurve" smooth="yes"/>
      <point x="780.820895522" y="156.0"/>
      <point x="926.089552239" y="379.313432836"/>
      <point x="944" y="592" type="qcurve"/>
      <point x="657" y="592" type="line"/>
      <point x="657" y="698" type="line"/>
    </contour>
  </outline>
</glyph>
<glyph name="H" format="1">
  <advance width="1304.576"/>
  <unicode hex="0048"/>
  <outline>
    <contour>
      <point x="1159" y="1475" type="line"/>
      <point x="1159" y="0" type="line"/>
      <point x="926" y="0" type="line"/>
      <point x="926" y="668" type="line"/>
      <point x="381" y="668" type="line"/>
      <point x="381" y="0" type="line"/>
      <point x="147" y="0" type="line"/>
      <point x="147" y="1475" type="line"/>
      <point x="381" y="1475" type="line"/>
      <point x="381" y="866" type="line"/>
      <point x="926" y="866" type="line"/>
      <point x="926" y="1475" type="line"/>
    </contour>
  </outline>
</glyph>
<glyph name="I" format="1">
  <advance width="841.728"/>
  <unicode hex="0049"/>
  <outline>
    <contour>
      <point x="743" y="100" type="line"/>
      <point x="743" y="0" type="line"/>
      <point x="98" y="0" type="line"/>
      <point x="98" y="100" type="line"/>
      <point x="303" y="100" type="line"/>
      <point x="303" y="1374" type="line"/>
      <point x="98" y="1374" type="line"/>
      <point x="98" y="1475" type="line"/>
      <point x="743" y="1475" type="line"/>
      <point x="743" y="1374" type="line"/>
      <point x="539" y="1374" type="line"/>
      <point x="539" y="100" type="line"/>
    </contour>
  </outline>
</glyph>
<glyph name="J" format="1">
  <advance width="1048.576"/>
  <unicode hex="004A"/>
  <outline>
    <contour>
      <point x="915" y="1475" type="line"/>
      <point x="915" y="438" type="line" smooth="yes"/>
      <point x="915.0" y="214.865671642"/>
      <point x="687.686567164" y="-25.0"/>
      <point x="475" y="-25" type="qcurve" smooth="yes"/>
      <point x="272.014925373" y="-25.0"/>
      <point x="49.9552238806" y="182.119402985"/>
      <point x="41" y="406" type="qcurve"/>
      <point x="260" y="455" type="line"/>
      <point x="262.985074627" y="287.835820896"/>
      <point x="384.223880597" y="162.0"/>
      <point x="479" y="162" type="qcurve" smooth="yes"/>
      <point x="570.791044776" y="162.0"/>
      <point x="680.0" y="289.701492537"/>
      <point x="680" y="430" type="qcurve" smooth="yes"/>
      <point x="680" y="1475" type="line"/>
    </contour>
  </outline>
</glyph>
<glyph name="K" format="1">
  <advance width="1269.76"/>
  <unicode hex="004B"/>
  <outline>
    <contour>
      <point x="682" y="805" type="line"/>
      <point x="1274" y="0" type="line"/>
      <point x="1010" y="0" type="line"/>
      <point x="434" y="795" type="line"/>
      <point x="434" y="799" type="line"/>
      <point x="979" y="1475" type="line"/>
      <point x="1239" y="1475" type="line"/>
    </contour>
    <contour>
      <point x="381" y="1475" type="line"/>
      <point x="381" y="0" type="line"/>
      <point x="147" y="0" type="line"/>
      <point x="147" y="1475" type="line"/>
    </contour>
  </outline>
</glyph>
<glyph name="N" format="1">
  <advance width="1329.152"/>
  <unicode hex="004E"/>
  <outline>
    <contour>
      <point x="1184" y="1475" type="line"/>
      <point x="1184" y="0" type="line"/>
      <point x="944" y="0" type="line"/>
      <point x="377" y="1128" type="line"/>
      <point x="362" y="1128" type="line"/>
      <point x="362" y="0" type="line"/>
      <point x="147" y="0" type="line"/>
      <point x="147" y="1475" type="line"/>
      <point x="408" y="1475" type="line"/>
      <point x="952" y="387" type="line"/>
      <point x="967" y="387" type="line"/>
      <point x="967" y="1475" type="line"/>
    </contour>
  </outline>
</glyph>
<glyph name="R" format="1">
  <advance width="1247.232"/>
  <unicode hex="0052"/>
  <outline>
    <contour>
      <point x="797" y="655" type="qcurve"/>
      <point x="1194" y="0" type="line"/>
      <point x="938" y="0" type="line"/>
      <point x="569" y="625" type="line"/>
      <point x="381" y="625" type="line"/>
      <point x="381" y="0" type="line"/>
      <point x="147" y="0" type="line"/>
      <point x="147" y="1475" type="line"/>
      <point x="639" y="1475" type="line" smooth="yes"/>
      <point x="872.582089552" y="1475.0"/>
      <point x="1143.0" y="1264.94029851"/>
      <point x="1143" y="1053" type="qcurve" smooth="yes"/>
      <point x="1143.0" y="887.328358209"/>
      <point x="963.417910448" y="684.104477612"/>
    </contour>
    <contour>
      <point x="616" y="786" type="line" smooth="yes"/>
      <point x="757.044776119" y="786.0"/>
      <point x="909.0" y="915.417910448"/>
      <point x="909" y="1049" type="qcurve" smooth="yes"/>
      <point x="909.0" y="1177.35820896"/>
      <point x="757.014925373" y="1305.0"/>
      <point x="610" y="1305" type="qcurve" smooth="yes"/>
      <point x="373" y="1305" type="line"/>
      <point x="373" y="786" type="line"/>
    </contour>
  </outline>
</glyph>
<glyph name="T" format="1">
  <advance width="1179.648"/>
  <unicode hex="0054"/>
  <outline>
    <contour>
      <point x="1141" y="1475" type="line"/>
      <point x="1141" y="1280" type="line"/>
      <point x="707" y="1280" type="line"/>
      <point x="707" y="0" type="line"/>
      <point x="473" y="0" type="line"/>
      <point x="473" y="1280" type="line"/>
      <point x="39" y="1280" type="line"/>
      <point x="39" y="1475" type="line"/>
    </contour>
  </outline>
</glyph>
<glyph name="W" format="1">
  <advance width="1992.704"/>
  <unicode hex="0057"/>
  <outline>
    <contour>
      <point x="1694" y="1475" type="line"/>
      <point x="1929" y="1475" type="line"/>
      <point x="1548" y="-10" type="line"/>
      <point x="1292" y="-10" type="line"/>
      <point x="997" y="1184" type="line"/>
      <point x="981" y="1184" type="line"/>
      <point x="688" y="-10" type="line"/>
      <point x="432" y="-10" type="line"/>
      <point x="51" y="1475" type="line"/>
      <point x="295" y="1475" type="line"/>
      <point x="565" y="266" type="line"/>
      <point x="578" y="266" type="line"/>
      <point x="862" y="1475" type="line"/>
      <point x="1124" y="1475" type="line"/>
      <point x="1411" y="266" type="line"/>
      <point x="1423" y="266" type="line"/>
    </contour>
  </outline>
</glyph>
<glyph name="X" format="1">
  <advance width="1306.624"/>
  <unicode hex="0058"/>
  <outline>
    <contour>
      <point x="776" y="772" type="line"/>
      <point x="1262" y="0" type="line"/>
      <point x="997" y="0" type="line"/>
      <point x="643" y="573" type="line"/>
      <point x="281" y="0" type="line"/>
      <point x="47" y="0" type="line"/>
      <point x="530" y="748" type="line"/>
      <point x="76" y="1475" type="line"/>
      <point x="338" y="1475" type="line"/>
      <point x="666" y="946" type="line"/>
      <point x="997" y="1475" type="line"/>
      <point x="1231" y="1475" type="line"/>
    </contour>
  </outline>
</glyph>
<glyph name="Y" format="1">
  <advance width="1288.192"/>
  <unicode hex="0059"/>
  <outline>
    <contour>
      <point x="1028" y="1475" type="line"/>
      <point x="1262" y="1475" type="line"/>
      <point x="762" y="575" type="line"/>
      <point x="762" y="0" type="line"/>
      <point x="526" y="0" type="line"/>
      <point x="526" y="571" type="line"/>
      <point x="27" y="1475" type="line"/>
      <point x="281" y="1475" type="line"/>
      <point x="653" y="778" type="line"/>
    </contour>
  </outline>
</glyph>
<glyph name="backslash" format="1">
  <advance width="835.584"/>
  <unicode hex="005C"/>
  <outline>
    <contour>
      <point x="242" y="1505" type="line"/>
      <point x="866" y="-195" type="line"/>
      <point x="653" y="-195" type="line"/>
      <point x="27" y="1505" type="line"/>
    </contour>
  </outline>
</glyph>
<glyph name="bracketright" format="1">
  <advance width="743.424"/>
  <unicode hex="005D"/>
  <outline>
    <contour>
      <point x="612" y="1493" type="line"/>
      <point x="612" y="-182" type="line"/>
      <point x="49" y="-164" type="line"/>
      <point x="49" y="-61" type="line"/>
      <point x="403" y="-76" type="line"/>
      <point x="403" y="1386" type="line"/>
      <point x="49" y="1372" type="line"/>
      <point x="49" y="1475" type="line"/>
    </contour>
  </outline>
</glyph>
<glyph name="a" format="1">
  <advance width="1034.24"/>
  <unicode hex="0061"/>
  <outline>
    <contour>
      <point x="997" y="82" type="qcurve"/>
      <point x="997" y="-8" type="line"/>
      <point x="859.686567164" y="-8.0"/>
      <point x="707.164179104" y="86.1492537313"/>
      <point x="690" y="166" type="qcurve"/>
      <point x="678" y="166" type="line"/>
      <point x="601.134328358" y="74.2089552239"/>
      <point x="439.28358209" y="-14.0"/>
      <point x="346" y="-14" type="qcurve" smooth="yes"/>
      <point x="228.089552239" y="-14.0"/>
      <point x="55.0" y="132.686567164"/>
      <point x="55" y="270" type="qcurve" smooth="yes"/>
      <point x="55.0" y="433.432835821"/>
      <point x="369.074626866" y="629.029850746"/>
      <point x="684" y="635" type="qcurve"/>
      <point x="684" y="745" type="line" smooth="yes"/>
      <point x="684.0" y="839.776119403"/>
      <point x="598.835820896" y="932.0"/>
      <point x="516" y="932" type="qcurve" smooth="yes"/>
      <point x="441.373134328" y="932.0"/>
      <point x="289.268656716" y="880.731343284"/>
      <point x="193" y="827" type="qcurve"/>
      <point x="131" y="965" type="line"/>
      <point x="231.746268657" y="1017.98507463"/>
      <point x="432.104477612" y="1085.0"/>
      <point x="553" y="1085" type="qcurve" smooth="yes"/>
      <point x="728.373134328" y="1085.0"/>
      <point x="889.0" y="925.880597015"/>
      <point x="889" y="752" type="qcurve" smooth="yes"/>
      <point x="889" y="217" type="line" smooth="yes"/>
      <point x="889.0" y="152.820895522"/>
      <point x="938.044776119" y="87.9701492537"/>
    </contour>
    <contour>
      <point x="432" y="121" type="qcurve" smooth="yes"/>
      <point x="500.656716418" y="121.0"/>
      <point x="628.776119403" y="189.343283582"/>
      <point x="684" y="258" type="qcurve"/>
      <point x="684" y="541" type="line"/>
      <point x="451.910447761" y="538.014925373"/>
      <point x="258.0" y="394.253731343"/>
      <point x="258" y="295" type="qcurve" smooth="yes"/>
      <point x="258.0" y="212.164179104"/>
      <point x="355.880597015" y="121.0"/>
    </contour>
  </outline>
</glyph>
<glyph name="b" format="1">
  <advance width="1087.488"/>
  <unicode hex="0062"/>
  <outline>
    <contour>
      <point x="1010" y="553" type="qcurve" smooth="yes"/>
      <point x="1010" y="524" type="line" smooth="yes"/>
      <point x="1010.0" y="261.313432836"/>
      <point x="805.791044776" y="-18.0"/>
      <point x="664" y="-18" type="qcurve" smooth="yes"/>
      <point x="556.537313433" y="-18.0"/>
      <point x="412.208955224" y="107.776119403"/>
      <point x="354" y="213" type="qcurve"/>
      <point x="344" y="213" type="line"/>
      <point x="344" y="-18" type="line"/>
      <point x="125" y="29" type="line"/>
      <point x="125" y="1507" type="line"/>
      <point x="344" y="1554" type="line"/>
      <point x="344" y="858" type="line"/>
      <point x="354" y="858" type="line"/>
      <point x="416.686567164" y="964.71641791"/>
      <point x="558.537313433" y="1092.0"/>
      <point x="666" y="1092" type="qcurve" smooth="yes"/>
      <point x="816.746268657" y="1092.0"/>
      <point x="1010.0" y="815.686567164"/>
    </contour>
    <contour>
      <point x="578" y="129" type="qcurve" smooth="yes"/>
      <point x="666.059701493" y="129.0"/>
      <point x="793.0" y="322.313432836"/>
      <point x="793" y="535" type="qcurve" smooth="yes"/>
      <point x="793.0" y="755.895522388"/>
      <point x="663.074626866" y="946.0"/>
      <point x="578" y="946" type="qcurve" smooth="yes"/>
      <point x="475.014925373" y="946.0"/>
      <point x="340.0" y="713.865671642"/>
      <point x="340" y="537" type="qcurve" smooth="yes"/>
      <point x="340.0" y="359.388059701"/>
      <point x="475.014925373" y="129.0"/>
    </contour>
  </outline>
</glyph>
<glyph name="c" format="1">
  <advance width="956.416"/>
  <unicode hex="0063"/>
  <outline>
    <contour>
      <point x="717" y="328" type="qcurve"/>
      <point x="905" y="283" type="line"/>
      <point x="860.970149254" y="134.492537313"/>
      <point x="661.492537313" y="-20.0"/>
      <point x="510" y="-20" type="qcurve" smooth="yes"/>
      <point x="311.492537313" y="-20.0"/>
      <point x="74.0" y="273.731343284"/>
      <point x="74" y="520" type="qcurve" smooth="yes"/>
      <point x="74" y="551" type="line" smooth="yes"/>
      <point x="74.0" y="794.28358209"/>
      <point x="315.014925373" y="1094.0"/>
      <point x="518" y="1094" type="qcurve" smooth="yes"/>
      <point x="672.47761194" y="1094.0"/>
      <point x="859.447761194" y="938.76119403"/>
      <point x="899" y="791" type="qcurve"/>
      <point x="707" y="745" type="line"/>
      <point x="677.895522388" y="845.0"/>
      <point x="593.850746269" y="946.0"/>
      <point x="514" y="946" type="qcurve" smooth="yes"/>
      <point x="408.776119403" y="946.0"/>
      <point x="293.0" y="737.537313433"/>
      <point x="293" y="545" type="qcurve" smooth="yes"/>
      <point x="293" y="530" type="line" smooth="yes"/>
      <point x="293.0" y="337.462686567"/>
      <point x="409.791044776" y="127.0"/>
      <point x="518" y="127" type="qcurve" smooth="yes"/>
      <point x="589.641791045" y="127.0"/>
      <point x="683.417910448" y="223.52238806"/>
    </contour>
  </outline>
</glyph>
<glyph name="d" format="1">
  <advance width="1085.44"/>
  <unicode hex="0064"/>
  <outline>
    <contour>
      <point x="961" y="1554" type="line"/>
      <point x="961" y="29" type="line"/>
      <point x="741" y="-18" type="line"/>
      <point x="741" y="215" type="line"/>
      <point x="731" y="215" type="line"/>
      <point x="668.313432836" y="108.28358209"/>
      <point x="526.71641791" y="-18.0"/>
      <point x="420" y="-18" type="qcurve" smooth="yes"/>
      <point x="270.0" y="-18.0"/>
      <point x="76.0" y="257.313432836"/>
      <point x="76" y="520" type="qcurve" smooth="yes"/>
      <point x="76" y="551" type="line" smooth="yes"/>
      <point x="76.0" y="812.194029851"/>
      <point x="279.970149254" y="1092.0"/>
      <point x="424" y="1092" type="qcurve" smooth="yes"/>
      <point x="530.71641791" y="1092.0"/>
      <point x="674.28358209" y="967.462686567"/>
      <point x="731" y="860" type="qcurve"/>
      <point x="741" y="860" type="line"/>
      <point x="741" y="1507" type="line"/>
    </contour>
    <contour>
      <point x="510" y="129" type="qcurve" smooth="yes"/>
      <point x="610.746268657" y="129.0"/>
      <point x="745.0" y="359.895522388"/>
      <point x="745" y="539" type="qcurve" smooth="yes"/>
      <point x="745.0" y="714.373134328"/>
      <point x="610.23880597" y="946.0"/>
      <point x="508" y="946" type="qcurve" smooth="yes"/>
      <point x="419.194029851" y="946.0"/>
      <point x="293.0" y="750.940298507"/>
      <point x="293" y="539" type="qcurve" smooth="yes"/>
      <point x="293.0" y="317.358208955"/>
      <point x="422.686567164" y="129.0"/>
    </contour>
  </outline>
</glyph>
<glyph name="f" format="1">
  <advance width="727.04"/>
  <unicode hex="0066"/>
  <outline>
    <contour>
      <point x="764" y="1526" type="qcurve"/>
      <point x="764" y="1368" type="line"/>
      <point x="727.432835821" y="1385.1641791"/>
      <point x="647.223880597" y="1403.0"/>
      <point x="592" y="1403" type="qcurve" smooth="yes"/>
      <point x="523.343283582" y="1403.0"/>
      <point x="451.0" y="1325.8358209"/>
      <point x="451" y="1243" type="qcurve" smooth="yes"/>
      <point x="451" y="1067" type="line"/>
      <point x="713" y="1067" type="line"/>
      <point x="713" y="915" type="line"/>
      <point x="451" y="915" type="line"/>
      <point x="451" y="0" type="line"/>
      <point x="233" y="0" type="line"/>
      <point x="233" y="915" type="line"/>
      <point x="31" y="915" type="line"/>
      <point x="31" y="1067" type="line"/>
      <point x="233" y="1067" type="line"/>
      <point x="233" y="1237" type="line" smooth="yes"/>
      <point x="233.0" y="1394.46268657"/>
      <point x="400.492537313" y="1554.0"/>
      <point x="549" y="1554" type="qcurve" smooth="yes"/>
      <point x="622.134328358" y="1554.0"/>
      <point x="719.970149254" y="1539.43283582"/>
    </contour>
  </outline>
</glyph>
<glyph name="j" format="1">
  <advance width="495.616"/>
  <unicode hex="006A"/>
  <outline>
    <contour>
      <point x="358" y="1073" type="line"/>
      <point x="358" y="-86" type="line" smooth="yes"/>
      <point x="358.0" y="-249.432835821"/>
      <point x="206.805970149" y="-389.0"/>
      <point x="68" y="-389" type="qcurve" smooth="yes"/>
      <point x="14.2686567164" y="-389.0"/>
      <point x="-57.4328358209" y="-376.940298507"/>
      <point x="-94" y="-365" type="qcurve"/>
      <point x="-94" y="-225" type="line"/>
      <point x="-64.8955223881" y="-236.194029851"/>
      <point x="-16.0895522388" y="-246.0"/>
      <point x="16" y="-246" type="qcurve" smooth="yes"/>
      <point x="71.223880597" y="-246.0"/>
      <point x="139.0" y="-179.850746269"/>
      <point x="139" y="-100" type="qcurve" smooth="yes"/>
      <point x="139" y="1073" type="line"/>
    </contour>
    <contour>
      <point x="373" y="1483" type="line"/>
      <point x="373" y="1278" type="line"/>
      <point x="125" y="1278" type="line"/>
      <point x="125" y="1483" type="line"/>
    </contour>
  </outline>
</glyph>
<glyph name="l" format="1">
  <advance width="495.616"/>
  <unicode hex="006C"/>
  <outline>
    <contour>
      <point x="358" y="1554" type="line"/>
      <point x="358" y="0" type="line"/>
      <point x="139" y="0" type="line"/>
      <point x="139" y="1507" type="line"/>
    </contour>
  </outline>
</glyph>
<glyph name="o" format="1">
  <advance width="1044.48"/>
  <unicode hex="006F"/>
  <outline>
    <contour>
      <point x="969" y="553" type="qcurve" smooth="yes"/>
      <point x="969" y="524" type="line" smooth="yes"/>
      <point x="969.0" y="279.970149254"/>
      <point x="728.71641791" y="-20.0"/>
      <point x="522" y="-20" type="qcurve" smooth="yes"/>
      <point x="314.537313433" y="-20.0"/>
      <point x="74.0" y="277.462686567"/>
      <point x="74" y="520" type="qcurve" smooth="yes"/>
      <point x="74" y="551" type="line" smooth="yes"/>
      <point x="74.0" y="794.28358209"/>
      <point x="314.537313433" y="1094.0"/>
      <point x="522" y="1094" type="qcurve" smooth="yes"/>
      <point x="728.71641791" y="1094.0"/>
      <point x="969.0" y="797.776119403"/>
    </contour>
    <contour>
      <point x="522" y="119" type="qcurve" smooth="yes"/>
      <point x="633.940298507" y="119.0"/>
      <point x="752.0" y="327.462686567"/>
      <point x="752" y="520" type="qcurve" smooth="yes"/>
      <point x="752" y="551" type="line" smooth="yes"/>
      <point x="752.0" y="745.029850746"/>
      <point x="633.940298507" y="954.0"/>
      <point x="522" y="954" type="qcurve" smooth="yes"/>
      <point x="410.805970149" y="954.0"/>
      <point x="293.0" y="745.537313433"/>
      <point x="293" y="553" type="qcurve" smooth="yes"/>
      <point x="293" y="522" type="line" smooth="yes"/>
      <point x="293.0" y="329.462686567"/>
      <point x="410.805970149" y="119.0"/>
    </contour>
  </outline>
</glyph>
<glyph name="s" format="1">
  <advance width="878.592"/>
  <unicode hex="0073"/>
  <outline>
    <contour>
      <point x="492" y="637" type="qcurve" smooth="yes"/>
      <point x="676.328358209" y="578.791044776"/>
      <point x="827.0" y="418.880597015"/>
      <point x="827" y="295" type="qcurve" smooth="yes"/>
      <point x="827.0" y="140.52238806"/>
      <point x="606.686567164" y="-18.0"/>
      <point x="444" y="-18" type="qcurve" smooth="yes"/>
      <point x="309.671641791" y="-18.0"/>
      <point x="113.656716418" y="66.8208955224"/>
      <point x="45" y="131" type="qcurve"/>
      <point x="147" y="250" type="line"/>
      <point x="209.686567164" y="188.805970149"/>
      <point x="366.164179104" y="123.0"/>
      <point x="449" y="123" type="qcurve" smooth="yes"/>
      <point x="528.104477612" y="123.0"/>
      <point x="635.0" y="197.850746269"/>
      <point x="635" y="268" type="qcurve" smooth="yes"/>
      <point x="635.0" y="335.164179104"/>
      <point x="541.059701493" y="418.223880597"/>
      <point x="403" y="463" type="qcurve" smooth="yes"/>
      <point x="230.611940299" y="519.71641791"/>
      <point x="82.0" y="676.582089552"/>
      <point x="82" y="793" type="qcurve" smooth="yes"/>
      <point x="82.0" y="925.835820896"/>
      <point x="279.52238806" y="1092.0"/>
      <point x="434" y="1092" type="qcurve" smooth="yes"/>
      <point x="545.940298507" y="1092.0"/>
      <point x="715.626865672" y="1027.17910448"/>
      <point x="791" y="963" type="qcurve"/>
      <point x="686" y="840" type="line"/>
      <point x="620.328358209" y="898.208955224"/>
      <point x="500.149253731" y="952.0"/>
      <point x="430" y="952" type="qcurve" smooth="yes"/>
      <point x="352.388059701" y="952.0"/>
      <point x="272.0" y="872.223880597"/>
      <point x="272" y="817" type="qcurve" smooth="yes"/>
      <point x="272.0" y="757.298507463"/>
      <point x="369.611940299" y="676.552238806"/>
    </contour>
  </outline>
</glyph>
<glyph name="t" format="1">
  <advance width="792.576"/>
  <unicode hex="0074"/>
  <outline>
    <contour>
      <point x="752" y="219" type="qcurve"/>
      <point x="752" y="51" type="line"/>
      <point x="681.104477612" y="14.4328358209"/>
      <point x="548.134328358" y="-20.0"/>
      <point x="475" y="-20" type="qcurve" smooth="yes"/>
      <point x="355.597014925" y="-20.0"/>
      <point x="221.0" y="94.6417910448"/>
      <point x="221" y="223" type="qcurve" smooth="yes"/>
      <point x="221" y="915" type="line"/>
      <point x="31" y="915" type="line"/>
      <point x="31" y="1067" type="line"/>
      <point x="221" y="1067" type="line"/>
      <point x="221" y="1411" type="line"/>
      <point x="438" y="1495" type="line"/>
      <point x="438" y="1067" type="line"/>
      <point x="709" y="1067" type="line"/>
      <point x="709" y="915" type="line"/>
      <point x="438" y="915" type="line"/>
      <point x="438" y="268" type="line" smooth="yes"/>
      <point x="438.0" y="208.298507463"/>
      <point x="499.23880597" y="150.0"/>
      <point x="547" y="150" type="qcurve" smooth="yes"/>
      <point x="588.044776119" y="150.0"/>
      <point x="684.835820896" y="182.432835821"/>
    </contour>
  </outline>
</glyph>
<glyph name="v" format="1">
  <advance width="1017.856"/>
  <unicode hex="0076"/>
  <outline>
    <contour>
      <point x="762" y="1073" type="line"/>
      <point x="979" y="1073" type="line"/>
      <point x="627" y="-10" type="line"/>
      <point x="391" y="-10" type="line"/>
      <point x="41" y="1073" type="line"/>
      <point x="266" y="1073" type="line"/>
      <point x="514" y="215" type="line"/>
    </contour>
  </outline>
</glyph>
<glyph name="w" format="1">
  <advance width="1611.776"/>
  <unicode hex="0077"/>
  <outline>
    <contour>
      <point x="1352" y="1073" type="line"/>
      <point x="1567" y="1073" type="line"/>
      <point x="1249" y="-8" type="line"/>
      <point x="1022" y="-8" type="line"/>
      <point x="807" y="807" type="line"/>
      <point x="592" y="-8" type="line"/>
      <point x="362" y="-8" type="line"/>
      <point x="45" y="1073" type="line"/>
      <point x="272" y="1073" type="line"/>
      <point x="485" y="229" type="line"/>
      <point x="705" y="1073" type="line"/>
      <point x="918" y="1073" type="line"/>
      <point x="1137" y="229" type="line"/>
    </contour>
  </outline>
</glyph>
<glyph name="asciitilde" format="1">
  <advance width="817.152"/>
  <unicode hex="007E"/>
  <outline>
    <contour>
      <point x="629" y="713" type="qcurve"/>
      <point x="741" y="713" type="line"/>
      <point x="743.985074627" y="577.925373134"/>
      <point x="656.791044776" y="451.0"/>
      <point x="565" y="451" type="qcurve" smooth="yes"/>
      <point x="473.208955224" y="451.0"/>
      <point x="322.71641791" y="561.0"/>
      <point x="266" y="561" type="qcurve" smooth="yes"/>
      <point x="224.955223881" y="561.0"/>
      <point x="188.0" y="510.970149254"/>
      <point x="188" y="455" type="qcurve"/>
      <point x="76" y="455" type="line"/>
      <point x="71.5223880597" y="589.328358209"/>
      <point x="160.208955224" y="717.0"/>
      <point x="252" y="717" type="qcurve" smooth="yes"/>
      <point x="343.791044776" y="717.0"/>
      <point x="494.28358209" y="604.0"/>
      <point x="551" y="604" type="qcurve" smooth="yes"/>
      <point x="590.552238806" y="604.0"/>
      <point x="629.0" y="654.791044776"/>
    </contour>
  </outline>
</glyph>
<glyph name="exclamdown" format="1">
  <advance width="534.528"/>
  <unicode hex="00A1"/>
  <outline>
    <contour>
      <point x="268" y="1489" type="qcurve" smooth="yes"/>
      <point x="324.71641791" y="1489.0"/>
      <point x="399.0" y="1412.71641791"/>
      <point x="399" y="1356" type="qcurve" smooth="yes"/>
      <point x="399.0" y="1299.28358209"/>
      <point x="324.71641791" y="1223.0"/>
      <point x="268" y="1223" type="qcurve" smooth="yes"/>
      <point x="212.029850746" y="1223.0"/>
      <point x="135.0" y="1299.28358209"/>
      <point x="135" y="1356" type="qcurve" smooth="yes"/>
      <point x="135.0" y="1412.71641791"/>
      <point x="212.029850746" y="1489.0"/>
    </contour>
    <contour>
      <point x="330" y="1022" type="line"/>
      <point x="401" y="0" type="line"/>
      <point x="133" y="0" type="line"/>
      <point x="205" y="1022" type="line"/>
    </contour>
  </outline>
</glyph>
<glyph name="cent" format="1">
  <advance width="983.04"/>
  <unicode hex="00A2"/>
  <outline>
    <contour>
      <point x="784" y="1268" type="line"/>
      <point x="915" y="1268" type="line"/>
      <point x="430" y="145" type="line"/>
      <point x="448.656716418" y="133.059701493"/>
      <point x="493.373134328" y="123.0"/>
      <point x="518" y="123" type="qcurve" smooth="yes"/>
      <point x="589.641791045" y="123.0"/>
      <point x="695.417910448" y="220.537313433"/>
      <point x="729" y="328" type="qcurve"/>
      <point x="905" y="283" type="line"/>
      <point x="860.970149254" y="134.492537313"/>
      <point x="661.492537313" y="-20.0"/>
      <point x="510" y="-20" type="qcurve" smooth="yes"/>
      <point x="470.447761194" y="-20.0"/>
      <point x="394.328358209" y="-7.4328358209"/>
      <point x="360" y="6" type="qcurve"/>
      <point x="274" y="-195" type="line"/>
      <point x="141" y="-195" type="line"/>
      <point x="260" y="59" type="line"/>
      <point x="171.194029851" y="124.671641791"/>
      <point x="74.0" y="364.029850746"/>
      <point x="74" y="520" type="qcurve" smooth="yes"/>
      <point x="74" y="551" type="line" smooth="yes"/>
      <point x="74.0" y="794.28358209"/>
      <point x="315.014925373" y="1094.0"/>
      <point x="518" y="1094" type="qcurve" smooth="yes"/>
      <point x="570.23880597" y="1094.0"/>
      <point x="659.432835821" y="1074.91044776"/>
      <point x="696" y="1057" type="qcurve"/>
    </contour>
    <contour>
      <point x="365" y="233" type="qcurve"/>
      <point x="635" y="920" type="line"/>
      <point x="610.373134328" y="934.925373134"/>
      <point x="553.074626866" y="950.0"/>
      <point x="518" y="950" type="qcurve" smooth="yes"/>
      <point x="408.298507463" y="950.0"/>
      <point x="281.0" y="740.52238806"/>
      <point x="281" y="545" type="qcurve" smooth="yes"/>
      <point x="281" y="530" type="line" smooth="yes"/>
      <point x="281.0" y="435.223880597"/>
      <point x="324.701492537" y="282.253731343"/>
    </contour>
  </outline>
</glyph>
<glyph name="sterling" format="1">
  <advance width="1206.272"/>
  <unicode hex="00A3"/>
  <outline>
    <contour>
      <point x="1012" y="410" type="qcurve"/>
      <point x="1161" y="358" type="line"/>
      <point x="1121.44776119" y="166.955223881"/>
      <point x="959.955223881" y="-12.0"/>
      <point x="801" y="-12" type="qcurve" smooth="yes"/>
      <point x="698.76119403" y="-12.0"/>
      <point x="522.268656716" y="60.8208955224"/>
      <point x="426" y="125" type="qcurve"/>
      <point x="369.28358209" y="74.2537313433"/>
      <point x="208.47761194" y="4.41791044776"/>
      <point x="104" y="-12" type="qcurve"/>
      <point x="104" y="154" type="line"/>
      <point x="215.940298507" y="179.373134328"/>
      <point x="348.0" y="312.940298507"/>
      <point x="348" y="451" type="qcurve" smooth="yes"/>
      <point x="348.0" y="509.955223881"/>
      <point x="329.179104478" y="619.76119403"/>
      <point x="315" y="672" type="qcurve"/>
      <point x="74" y="672" type="line"/>
      <point x="74" y="793" type="line"/>
      <point x="274" y="793" type="line"/>
      <point x="251.611940299" y="866.134328358"/>
      <point x="213.0" y="1011.64179104"/>
      <point x="213" y="1090" type="qcurve" smooth="yes"/>
      <point x="213.0" y="1263.88059701"/>
      <point x="438.582089552" y="1499.0"/>
      <point x="655" y="1499" type="qcurve" smooth="yes"/>
      <point x="835.597014925" y="1499.0"/>
      <point x="1039.82089552" y="1362.91044776"/>
      <point x="1104" y="1245" type="qcurve"/>
      <point x="918" y="1147" type="line"/>
      <point x="865.76119403" y="1237.29850746"/>
      <point x="741.298507463" y="1329.0"/>
      <point x="651" y="1329" type="qcurve" smooth="yes"/>
      <point x="535.328358209" y="1329.0"/>
      <point x="424.0" y="1195.2238806"/>
      <point x="424" y="1090" type="qcurve" smooth="yes"/>
      <point x="424.0" y="1017.6119403"/>
      <point x="465.880597015" y="872.104477612"/>
      <point x="492" y="793" type="qcurve"/>
      <point x="874" y="793" type="line"/>
      <point x="874" y="672" type="line"/>
      <point x="526" y="672" type="line"/>
      <point x="538.686567164" y="621.253731343"/>
      <point x="555.0" y="511.447761194"/>
      <point x="555" y="451" type="qcurve" smooth="yes"/>
      <point x="555.0" y="398.76119403"/>
      <point x="537.164179104" y="305.552238806"/>
      <point x="520" y="266" type="qcurve"/>
      <point x="587.164179104" y="217.492537313"/>
      <point x="717.791044776" y="168.0"/>
      <point x="776" y="168" type="qcurve" smooth="yes"/>
      <point x="872.268656716" y="168.0"/>
      <point x="979.910447761" y="273.432835821"/>
    </contour>
  </outline>
</glyph>
<glyph name="yen" format="1">
  <advance width="1280.0"/>
  <unicode hex="00A5"/>
  <outline>
    <contour>
      <point x="1016" y="1475" type="line"/>
      <point x="1245" y="1475" type="line"/>
      <point x="874" y="805" type="line"/>
      <point x="1149" y="805" type="line"/>
      <point x="1149" y="684" type="line"/>
      <point x="809" y="684" type="line"/>
      <point x="750" y="575" type="line"/>
      <point x="750" y="422" type="line"/>
      <point x="1149" y="422" type="line"/>
      <point x="1149" y="301" type="line"/>
      <point x="750" y="301" type="line"/>
      <point x="750" y="0" type="line"/>
      <point x="530" y="0" type="line"/>
      <point x="530" y="301" type="line"/>
      <point x="131" y="301" type="line"/>
      <point x="131" y="422" type="line"/>
      <point x="530" y="422" type="line"/>
      <point x="530" y="571" type="line"/>
      <point x="469" y="684" type="line"/>
      <point x="131" y="684" type="line"/>
      <point x="131" y="805" type="line"/>
      <point x="403" y="805" type="line"/>
      <point x="35" y="1475" type="line"/>
      <point x="283" y="1475" type="line"/>
      <point x="649" y="754" type="line"/>
    </contour>
  </outline>
</glyph>
<glyph name="section" format="1">
  <advance width="1204.224"/>
  <unicode hex="00A7"/>
  <outline>
    <contour>
      <point x="711" y="1042" type="qcurve" smooth="yes"/>
      <point x="946.074626866" y="979.313432836"/>
      <point x="1139.0" y="831.746268657"/>
      <point x="1139" y="731" type="qcurve" smooth="yes"/>
      <point x="1139.0" y="633.23880597"/>
      <point x="961.447761194" y="493.686567164"/>
      <point x="801" y="481" type="qcurve"/>
      <point x="801" y="469" type="line"/>
      <point x="907.71641791" y="433.925373134"/>
      <point x="1012.0" y="313.328358209"/>
      <point x="1012" y="229" type="qcurve" smooth="yes"/>
      <point x="1012.0" y="116.313432836"/>
      <point x="806.850746269" y="-25.0"/>
      <point x="627" y="-25" type="qcurve" smooth="yes"/>
      <point x="494.164179104" y="-25.0"/>
      <point x="288.955223881" y="28.2985074627"/>
      <point x="180" y="88" type="qcurve"/>
      <point x="262" y="223" type="line"/>
      <point x="356.776119403" y="170.014925373"/>
      <point x="539.23880597" y="119.0"/>
      <point x="637" y="119" type="qcurve" smooth="yes"/>
      <point x="725.805970149" y="119.0"/>
      <point x="829.0" y="180.492537313"/>
      <point x="829" y="229" type="qcurve" smooth="yes"/>
      <point x="829.0" y="285.71641791"/>
      <point x="717.641791045" y="373.791044776"/>
      <point x="496" y="432" type="qcurve" smooth="yes"/>
      <point x="260.179104478" y="494.686567164"/>
      <point x="68.0" y="642.253731343"/>
      <point x="68" y="743" type="qcurve" smooth="yes"/>
      <point x="68.0" y="840.76119403"/>
      <point x="244.805970149" y="981.059701493"/>
      <point x="406" y="993" type="qcurve"/>
      <point x="406" y="1006" type="line"/>
      <point x="297.044776119" y="1041.07462687"/>
      <point x="195.0" y="1161.41791045"/>
      <point x="195" y="1245" type="qcurve" smooth="yes"/>
      <point x="195.0" y="1358.43283582"/>
      <point x="398.895522388" y="1499.0"/>
      <point x="578" y="1499" type="qcurve" smooth="yes"/>
      <point x="710.835820896" y="1499.0"/>
      <point x="916.298507463" y="1445.70149254"/>
      <point x="1026" y="1386" type="qcurve"/>
      <point x="944" y="1251" type="line"/>
      <point x="849.223880597" y="1304.73134328"/>
      <point x="664.76119403" y="1356.0"/>
      <point x="567" y="1356" type="qcurve" smooth="yes"/>
      <point x="478.940298507" y="1356.0"/>
      <point x="377.0" y="1294.25373134"/>
      <point x="377" y="1245" type="qcurve" smooth="yes"/>
      <point x="377.0" y="1188.28358209"/>
      <point x="489.358208955" y="1100.20895522"/>
    </contour>
    <contour>
      <point x="727" y="545" type="qcurve" smooth="yes"/>
      <point x="832.223880597" y="545.0"/>
      <point x="971.0" y="624.865671642"/>
      <point x="971" y="698" type="qcurve" smooth="yes"/>
      <point x="971.0" y="759.194029851"/>
      <point x="850.28358209" y="857.955223881"/>
      <point x="707" y="899" type="qcurve" smooth="yes"/>
      <point x="650.28358209" y="916.164179104"/>
      <point x="540.194029851" y="930.0"/>
      <point x="479" y="930" type="qcurve" smooth="yes"/>
      <point x="372.28358209" y="930.0"/>
      <point x="236.0" y="849.134328358"/>
      <point x="236" y="776" type="qcurve" smooth="yes"/>
      <point x="236.0" y="714.805970149"/>
      <point x="355.970149254" y="616.791044776"/>
      <point x="500" y="575" type="qcurve" smooth="yes"/>
      <point x="555.970149254" y="558.582089552"/>
      <point x="665.805970149" y="545.0"/>
    </contour>
  </outline>
</glyph>
<glyph name="dieresis" format="1">
  <advance width="1024.0"/>
  <unicode hex="00A8"/>
  <outline>
    <contour>
      <point x="416" y="1430" type="line"/>
      <point x="416" y="1212" type="line"/>
      <point x="221" y="1212" type="line"/>
      <point x="221" y="1430" type="line"/>
    </contour>
    <contour>
      <point x="803" y="1430" type="line"/>
      <point x="803" y="1212" type="line"/>
      <point x="608" y="1212" type="line"/>
      <point x="608" y="1430" type="line"/>
    </contour>
  </outline>
</glyph>
<glyph name="guillemotleft" format="1">
  <advance width="985.088"/>
  <unicode hex="00AB"/>
  <outline>
    <contour>
      <point x="279" y="537" type="line"/>
      <point x="502" y="152" type="line"/>
      <point x="373" y="152" type="line"/>
      <point x="47" y="537" type="line"/>
      <point x="373" y="922" type="line"/>
      <point x="502" y="922" type="line"/>
    </contour>
    <contour>
      <point x="698" y="537" type="line"/>
      <point x="922" y="152" type="line"/>
      <point x="793" y="152" type="line"/>
      <point x="467" y="537" type="line"/>
      <point x="793" y="922" type="line"/>
      <point x="922" y="922" type="line"/>
    </contour>
  </outline>
</glyph>
<glyph name="uni00AE" format="1">
  <advance width="1695.744"/>
  <unicode hex="00AE"/>
  <outline>
    <contour>
      <point x="977" y="696" type="qcurve"/>
      <point x="1204" y="326" type="line"/>
      <point x="1030" y="326" type="line"/>
      <point x="819" y="676" type="line"/>
      <point x="733" y="676" type="line"/>
      <point x="733" y="326" type="line"/>
      <point x="575" y="326" type="line"/>
      <point x="575" y="1174" type="line"/>
      <point x="868" y="1174" type="line" smooth="yes"/>
      <point x="1004.56716418" y="1174.0"/>
      <point x="1165.0" y="1050.3880597"/>
      <point x="1165" y="928" type="qcurve" smooth="yes"/>
      <point x="1165.0" y="834.71641791"/>
      <point x="1064.31343284" y="717.641791045"/>
    </contour>
    <contour>
      <point x="848" y="1499" type="qcurve" smooth="yes"/>
      <point x="1171.88059701" y="1499.0"/>
      <point x="1610.0" y="1060.88059701"/>
      <point x="1610" y="737" type="qcurve" smooth="yes"/>
      <point x="1610.0" y="414.611940299"/>
      <point x="1169.88059701" y="-25.0"/>
      <point x="846" y="-25" type="qcurve" smooth="yes"/>
      <point x="523.611940299" y="-25.0"/>
      <point x="86.0" y="413.119402985"/>
      <point x="86" y="737" type="qcurve" smooth="yes"/>
      <point x="86.0" y="1059.3880597"/>
      <point x="525.611940299" y="1499.0"/>
    </contour>
    <contour>
      <point x="848" y="47" type="qcurve" smooth="yes"/>
      <point x="1142.7761194" y="47.0"/>
      <point x="1528.0" y="442.223880597"/>
      <point x="1528" y="737" type="qcurve" smooth="yes"/>
      <point x="1528.0" y="1030.28358209"/>
      <point x="1140.7761194" y="1427.0"/>
      <point x="846" y="1427" type="qcurve" smooth="yes"/>
      <point x="552.71641791" y="1427.0"/>
      <point x="168.0" y="1032.52238806"/>
      <point x="168" y="737" type="qcurve" smooth="yes"/>
      <point x="168.0" y="443.71641791"/>
      <point x="554.71641791" y="47.0"/>
    </contour>
    <contour>
      <point x="854" y="791" type="line" smooth="yes"/>
      <point x="928.626865672" y="791.0"/>
      <point x="1008.0" y="857.343283582"/>
      <point x="1008" y="926" type="qcurve" smooth="yes"/>
      <point x="1008.0" y="990.179104478"/>
      <point x="928.119402985" y="1057.0"/>
      <point x="852" y="1057" type="qcurve" smooth="yes"/>
      <point x="729" y="1057" type="line"/>
      <point x="729" y="791" type="line"/>
    </contour>
  </outline>
</glyph>
<glyph name="acute" format="1">
  <advance width="1024.0"/>
  <unicode hex="00B4"/>
  <outline>
    <contour>
      <point x="494" y="1522" type="line"/>
      <point x="758" y="1522" type="line"/>
      <point x="465" y="1212" type="line"/>
      <point x="319" y="1212" type="line"/>
    </contour>
  </outline>
</glyph>
<glyph name="ordmasculine" format="1">
  <advance width="798.72"/>
  <unicode hex="00BA"/>
  <outline>
    <contour>
      <point x="399" y="1489" type="qcurve" smooth="yes"/>
      <point x="540.044776119" y="1489.0"/>
      <point x="707.0" y="1285.40298507"/>
      <point x="707" y="1116" type="qcurve" smooth="yes"/>
      <point x="707.0" y="946.597014925"/>
      <point x="540.044776119" y="743.0"/>
      <point x="399" y="743" type="qcurve" smooth="yes"/>
      <point x="258.701492537" y="743.0"/>
      <point x="94.0" y="946.597014925"/>
      <point x="94" y="1116" type="qcurve" smooth="yes"/>
      <point x="94.0" y="1285.40298507"/>
      <point x="258.701492537" y="1489.0"/>
    </contour>
    <contour>
      <point x="399" y="846" type="qcurve" smooth="yes"/>
      <point x="472.880597015" y="846.0"/>
      <point x="549.0" y="985.641791045"/>
      <point x="549" y="1114" type="qcurve" smooth="yes"/>
      <point x="549.0" y="1243.85074627"/>
      <point x="472.880597015" y="1386.0"/>
      <point x="399" y="1386" type="qcurve" smooth="yes"/>
      <point x="327.358208955" y="1386.0"/>
      <point x="250.0" y="1246.35820896"/>
      <point x="250" y="1118" type="qcurve" smooth="yes"/>
      <point x="250.0" y="988.149253731"/>
      <point x="327.358208955" y="846.0"/>
    </contour>
    <contour>
      <point x="692" y="608" type="line"/>
      <point x="692" y="514" type="line"/>
      <point x="109" y="514" type="line"/>
      <point x="109" y="608" type="line"/>
    </contour>
  </outline>
</glyph>
<glyph name="questiondown" format="1">
  <advance width="960.512"/>
  <unicode hex="00BF"/>
  <outline>
    <contour>
      <point x="756" y="375" type="qcurve"/>
      <point x="926" y="297" type="line"/>
      <point x="863.313432836" y="144.014925373"/>
      <point x="654.611940299" y="-25.0"/>
      <point x="477" y="-25" type="qcurve" smooth="yes"/>
      <point x="288.940298507" y="-25.0"/>
      <point x="78.0" y="176.507462687"/>
      <point x="78" y="328" type="qcurve" smooth="yes"/>
      <point x="78.0" y="454.865671642"/>
      <point x="182.074626866" y="607.985074627"/>
      <point x="297" y="705" type="qcurve" smooth="yes"/>
      <point x="382.820895522" y="776.641791045"/>
      <point x="452.52238806" y="901.104477612"/>
      <point x="457" y="1022" type="qcurve"/>
      <point x="596" y="1022" type="line"/>
      <point x="606.447761194" y="855.582089552"/>
      <point x="541.253731343" y="689.791044776"/>
      <point x="442" y="598" type="qcurve" smooth="yes"/>
      <point x="367.373134328" y="530.835820896"/>
      <point x="301.0" y="409.641791045"/>
      <point x="301" y="338" type="qcurve" smooth="yes"/>
      <point x="301.0" y="255.164179104"/>
      <point x="398.940298507" y="150.0"/>
      <point x="487" y="150" type="qcurve" smooth="yes"/>
      <point x="580.28358209" y="150.0"/>
      <point x="702.268656716" y="254.104477612"/>
    </contour>
    <contour>
      <point x="528" y="1489" type="qcurve" smooth="yes"/>
      <point x="584.71641791" y="1489.0"/>
      <point x="662.0" y="1412.71641791"/>
      <point x="662" y="1356" type="qcurve" smooth="yes"/>
      <point x="662.0" y="1299.28358209"/>
      <point x="584.71641791" y="1223.0"/>
      <point x="528" y="1223" type="qcurve" smooth="yes"/>
      <point x="472.029850746" y="1223.0"/>
      <point x="395.0" y="1299.28358209"/>
      <point x="395" y="1356" type="qcurve" smooth="yes"/>
      <point x="395.0" y="1412.71641791"/>
      <point x="472.029850746" y="1489.0"/>
    </contour>
  </outline>
</glyph>
<glyph name="Ccedilla" format="1">
  <advance width="1216.512"/>
  <unicode hex="00C7"/>
  <outline>
    <contour>
      <point x="936" y="492" type="qcurve"/>
      <point x="1151" y="438" type="line"/>
      <point x="1108.46268657" y="235.014925373"/>
      <point x="878.0" y="-11.8059701493"/>
      <point x="678" y="-23" type="qcurve"/>
      <point x="627" y="-102" type="line"/>
      <point x="646.402985075" y="-96.0298507463"/>
      <point x="695.895522388" y="-88.0"/>
      <point x="725" y="-88" type="qcurve" smooth="yes"/>
      <point x="795.149253731" y="-88.0"/>
      <point x="885.0" y="-146.791044776"/>
      <point x="885" y="-205" type="qcurve" smooth="yes"/>
      <point x="885.0" y="-302.76119403"/>
      <point x="647.268656716" y="-395.47761194"/>
      <point x="401" y="-391" type="qcurve"/>
      <point x="401" y="-336" type="line"/>
      <point x="589.059701493" y="-333.014925373"/>
      <point x="737.0" y="-277.776119403"/>
      <point x="737" y="-233" type="qcurve" smooth="yes"/>
      <point x="737.0" y="-207.626865672"/>
      <point x="698.567164179" y="-180.0"/>
      <point x="662" y="-180" type="qcurve" smooth="yes"/>
      <point x="631.402985075" y="-180.0"/>
      <point x="576.611940299" y="-191.805970149"/>
      <point x="549" y="-203" type="qcurve"/>
      <point x="494" y="-168" type="line"/>
      <point x="594" y="-23" type="line"/>
      <point x="364.895522388" y="-4.34328358209"/>
      <point x="94.0" y="380.373134328"/>
      <point x="94" y="705" type="qcurve" smooth="yes"/>
      <point x="94" y="766" type="line" smooth="yes"/>
      <point x="94.0" y="1108.53731343"/>
      <point x="391.268656716" y="1499.0"/>
      <point x="645" y="1499" type="qcurve" smooth="yes"/>
      <point x="865.149253731" y="1499.0"/>
      <point x="1103.44776119" y="1251.50746269"/>
      <point x="1143" y="1053" type="qcurve"/>
      <point x="922" y="997" type="line"/>
      <point x="889.910447761" y="1157.44776119"/>
      <point x="759.925373134" y="1319.0"/>
      <point x="645" y="1319" type="qcurve" smooth="yes"/>
      <point x="486.044776119" y="1319.0"/>
      <point x="336.0" y="1023.59701493"/>
      <point x="336" y="793" type="qcurve" smooth="yes"/>
      <point x="336" y="684" type="line" smooth="yes"/>
      <point x="336.0" y="453.402985075"/>
      <point x="486.552238806" y="156.0"/>
      <point x="647" y="156" type="qcurve" smooth="yes"/>
      <point x="767.895522388" y="156.0"/>
      <point x="903.910447761" y="330.805970149"/>
    </contour>
  </outline>
</glyph>
<glyph name="Eth" format="1">
  <advance width="1366.016"/>
  <unicode hex="00D0"/>
  <outline>
    <contour>
      <point x="1274" y="762" type="qcurve" smooth="yes"/>
      <point x="1274" y="715" type="line" smooth="yes"/>
      <point x="1274.0" y="372.462686567"/>
      <point x="936.28358209" y="0.0"/>
      <point x="643" y="0" type="qcurve" smooth="yes"/>
      <point x="223" y="0" type="line"/>
      <point x="223" y="676" type="line"/>
      <point x="49" y="676" type="line"/>
      <point x="49" y="858" type="line"/>
      <point x="223" y="858" type="line"/>
      <point x="223" y="1475" type="line"/>
      <point x="649" y="1475" type="line" smooth="yes"/>
      <point x="943.776119403" y="1475.0"/>
      <point x="1274.0" y="1103.04477612"/>
    </contour>
    <contour>
      <point x="641" y="180" type="line" smooth="yes"/>
      <point x="827.567164179" y="180.0"/>
      <point x="1032.0" y="441.76119403"/>
      <point x="1032" y="694" type="qcurve" smooth="yes"/>
      <point x="1032" y="778" type="line" smooth="yes"/>
      <point x="1032.0" y="1031.73134328"/>
      <point x="830.52238806" y="1294.0"/>
      <point x="635" y="1294" type="qcurve" smooth="yes"/>
      <point x="444" y="1294" type="line"/>
      <point x="444" y="858" type="line"/>
      <point x="694" y="858" type="line"/>
      <point x="694" y="676" type="line"/>
      <point x="444" y="676" type="line"/>
      <point x="444" y="180" type="line"/>
    </contour>
  </outline>
</glyph>
<glyph name="Oslash" format="1">
  <advance width="1292.288"/>
  <unicode hex="00D8"/>
  <outline>
    <contour>
      <point x="1198" y="770" type="qcurve" smooth="yes"/>
      <point x="1198" y="709" type="line" smooth="yes"/>
      <point x="1198.0" y="366.462686567"/>
      <point x="900.223880597" y="-25.0"/>
      <point x="645" y="-25" type="qcurve" smooth="yes"/>
      <point x="565.895522388" y="-25.0"/>
      <point x="424.462686567" y="17.9552238806"/>
      <point x="367" y="59" type="qcurve"/>
      <point x="240" y="-195" type="line"/>
      <point x="94" y="-195" type="line"/>
      <point x="268" y="135" type="line"/>
      <point x="184.417910448" y="226.791044776"/>
      <point x="94.0" y="518.432835821"/>
      <point x="94" y="705" type="qcurve" smooth="yes"/>
      <point x="94" y="766" type="line" smooth="yes"/>
      <point x="94.0" y="1108.53731343"/>
      <point x="391.268656716" y="1499.0"/>
      <point x="645" y="1499" type="qcurve" smooth="yes"/>
      <point x="726.343283582" y="1499.0"/>
      <point x="867.28358209" y="1456.04477612"/>
      <point x="924" y="1415" type="qcurve"/>
      <point x="1053" y="1673" type="line"/>
      <point x="1198" y="1673" type="line"/>
      <point x="1022" y="1341" type="line"/>
      <point x="1106.32835821" y="1248.46268657"/>
      <point x="1198.0" y="958.059701493"/>
    </contour>
    <contour>
      <point x="645" y="147" type="qcurve" smooth="yes"/>
      <point x="805.447761194" y="147.0"/>
      <point x="969.0" y="438.71641791"/>
      <point x="969" y="682" type="qcurve" smooth="yes"/>
      <point x="969" y="791" type="line" smooth="yes"/>
      <point x="969.0" y="890.253731343"/>
      <point x="932.074626866" y="1060.80597015"/>
      <point x="897" y="1122" type="qcurve"/>
      <point x="451" y="229" type="line"/>
      <point x="489.059701493" y="189.447761194"/>
      <point x="585.298507463" y="147.0"/>
    </contour>
    <contour>
      <point x="395" y="354" type="qcurve"/>
      <point x="840" y="1245" type="line"/>
      <point x="803.432835821" y="1284.55223881"/>
      <point x="704.701492537" y="1327.0"/>
      <point x="645" y="1327" type="qcurve" smooth="yes"/>
      <point x="486.044776119" y="1327.0"/>
      <point x="324.0" y="1035.53731343"/>
      <point x="324" y="793" type="qcurve" smooth="yes"/>
      <point x="324" y="684" type="line" smooth="yes"/>
      <point x="324.0" y="584.746268657"/>
      <point x="358.432835821" y="415.194029851"/>
    </contour>
  </outline>
</glyph>
<glyph name="Thorn" format="1">
  <advance width="1189.888"/>
  <unicode hex="00DE"/>
  <outline>
    <contour>
      <point x="618" y="1196" type="line" smooth="yes"/>
      <point x="853.820895522" y="1196.0"/>
      <point x="1126.0" y="978.686567164"/>
      <point x="1126" y="766" type="qcurve" smooth="yes"/>
      <point x="1126.0" y="547.343283582"/>
      <point x="853.253731343" y="319.0"/>
      <point x="604" y="319" type="qcurve" smooth="yes"/>
      <point x="381" y="319" type="line"/>
      <point x="381" y="0" type="line"/>
      <point x="147" y="0" type="line"/>
      <point x="147" y="1475" type="line"/>
      <point x="381" y="1475" type="line"/>
      <point x="381" y="1196" type="line"/>
    </contour>
    <contour>
      <point x="600" y="492" type="line" smooth="yes"/>
      <point x="740.298507463" y="492.0"/>
      <point x="893.0" y="629.164179104"/>
      <point x="893" y="762" type="qcurve" smooth="yes"/>
      <point x="893.0" y="890.358208955"/>
      <point x="741.014925373" y="1028.0"/>
      <point x="594" y="1028" type="qcurve" smooth="yes"/>
      <point x="373" y="1028" type="line"/>
      <point x="373" y="492" type="line"/>
    </contour>
  </outline>
</glyph>
<glyph name="ae" format="1">
  <advance width="1583.104"/>
  <unicode hex="00E6"/>
  <outline>
    <contour>
      <point x="1440" y="246" type="qcurve"/>
      <point x="1505" y="113" type="line"/>
      <point x="1416.19402985" y="50.3134328358"/>
      <point x="1239.40298507" y="-18.0"/>
      <point x="1120" y="-18" type="qcurve" smooth="yes"/>
      <point x="999.104477612" y="-18.0"/>
      <point x="811.462686567" y="88.2388059701"/>
      <point x="754" y="186" type="qcurve"/>
      <point x="669.671641791" y="92.7164179104"/>
      <point x="473.940298507" y="-14.0"/>
      <point x="362" y="-14" type="qcurve" smooth="yes"/>
      <point x="227.671641791" y="-14.0"/>
      <point x="55.0" y="132.686567164"/>
      <point x="55" y="270" type="qcurve" smooth="yes"/>
      <point x="55.0" y="433.432835821"/>
      <point x="364.537313433" y="627.537313433"/>
      <point x="672" y="635" type="qcurve"/>
      <point x="672" y="758" type="line" smooth="yes"/>
      <point x="672.0" y="841.582089552"/>
      <point x="586.597014925" y="932.0"/>
      <point x="506" y="932" type="qcurve" smooth="yes"/>
      <point x="440.328358209" y="932.0"/>
      <point x="289.268656716" y="880.731343284"/>
      <point x="193" y="827" type="qcurve"/>
      <point x="131" y="965" type="line"/>
      <point x="231.746268657" y="1017.98507463"/>
      <point x="420.298507463" y="1085.0"/>
      <point x="530" y="1085" type="qcurve" smooth="yes"/>
      <point x="649.402985075" y="1085.0"/>
      <point x="772.850746269" y="979.805970149"/>
      <point x="793" y="891" type="qcurve"/>
      <point x="807" y="891" type="line"/>
      <point x="851.029850746" y="985.776119403"/>
      <point x="998.268656716" y="1094.0"/>
      <point x="1102" y="1094" type="qcurve" smooth="yes"/>
      <point x="1291.55223881" y="1094.0"/>
      <point x="1505.0" y="797.746268657"/>
      <point x="1505" y="547" type="qcurve" smooth="yes"/>
      <point x="1505" y="489" type="line"/>
      <point x="879" y="489" type="line"/>
      <point x="883.47761194" y="307.656716418"/>
      <point x="1030.10447761" y="135.0"/>
      <point x="1151" y="135" type="qcurve" smooth="yes"/>
      <point x="1227.11940299" y="135.0"/>
      <point x="1366.11940299" y="190.776119403"/>
    </contour>
    <contour>
      <point x="438" y="121" type="qcurve" smooth="yes"/>
      <point x="503.671641791" y="121.0"/>
      <point x="648.820895522" y="196.358208955"/>
      <point x="713" y="268" type="qcurve"/>
      <point x="692.850746269" y="321.731343284"/>
      <point x="672.0" y="445.343283582"/>
      <point x="672" y="514" type="qcurve" smooth="yes"/>
      <point x="672" y="541" type="line"/>
      <point x="450.358208955" y="536.52238806"/>
      <point x="258.0" y="394.76119403"/>
      <point x="258" y="297" type="qcurve" smooth="yes"/>
      <point x="258.0" y="211.179104478"/>
      <point x="357.402985075" y="121.0"/>
    </contour>
    <contour>
      <point x="879" y="592" type="qcurve"/>
      <point x="1298" y="592" type="line"/>
      <point x="1290.53731343" y="780.059701493"/>
      <point x="1190.26865672" y="961.0"/>
      <point x="1094" y="961" type="qcurve" smooth="yes"/>
      <point x="996.23880597" y="961.0"/>
      <point x="884.970149254" y="770.358208955"/>
    </contour>
  </outline>
</glyph>
<glyph name="Lslash" format="1">
  <advance width="1138.688"/>
  <unicode hex="0141"/>
  <outline>
    <contour>
      <point x="1102" y="195" type="line"/>
      <point x="1102" y="0" type="line"/>
      <point x="223" y="0" type="line"/>
      <point x="223" y="631" type="line"/>
      <point x="49" y="553" type="line"/>
      <point x="49" y="741" type="line"/>
      <point x="223" y="819" type="line"/>
      <point x="223" y="1475" type="line"/>
      <point x="453" y="1475" type="line"/>
      <point x="453" y="911" type="line"/>
      <point x="737" y="1040" type="line"/>
      <point x="737" y="850" type="line"/>
      <point x="453" y="721" type="line"/>
      <point x="453" y="195" type="line"/>
    </contour>
  </outline>
</glyph>
<glyph name="OE" format="1">
  <advance width="1832.96"/>
  <unicode hex="0152"/>
  <outline>
    <contour>
      <point x="1763" y="180" type="line"/>
      <point x="1763" y="0" type="line"/>
      <point x="737" y="0" type="line" smooth="yes"/>
      <point x="428.791044776" y="0.0"/>
      <point x="94.0" y="371.955223881"/>
      <point x="94" y="713" type="qcurve" smooth="yes"/>
      <point x="94" y="760" type="line" smooth="yes"/>
      <point x="94.0" y="1102.53731343"/>
      <point x="434.791044776" y="1475.0"/>
      <point x="743" y="1475" type="qcurve" smooth="yes"/>
      <point x="1739" y="1475" type="line"/>
      <point x="1739" y="1294" type="line"/>
      <point x="1102" y="1294" type="line"/>
      <point x="1102" y="854" type="line"/>
      <point x="1599" y="854" type="line"/>
      <point x="1599" y="680" type="line"/>
      <point x="1102" y="680" type="line"/>
      <point x="1102" y="180" type="line"/>
    </contour>
    <contour>
      <point x="752" y="176" type="qcurve" smooth="yes"/>
      <point x="874" y="176" type="line"/>
      <point x="874" y="1298" type="line"/>
      <point x="745" y="1298" type="line" smooth="yes"/>
      <point x="550.970149254" y="1298.0"/>
      <point x="330.0" y="1034.23880597"/>
      <point x="330" y="782" type="qcurve" smooth="yes"/>
      <point x="330" y="696" type="line" smooth="yes"/>
      <point x="330.0" y="440.776119403"/>
      <point x="548.268656716" y="176.0"/>
    </contour>
  </outline>
</glyph>
<glyph name="caron" format="1">
  <advance width="1024.0"/>
  <unicode hex="02C7"/>
  <outline>
    <contour>
      <point x="733" y="1544" type="line"/>
      <point x="842" y="1544" type="line"/>
      <point x="598" y="1212" type="line"/>
      <point x="426" y="1212" type="line"/>
      <point x="182" y="1544" type="line"/>
      <point x="295" y="1544" type="line"/>
      <point x="514" y="1354" type="line"/>
    </contour>
  </outline>
</glyph>
<glyph name="breve" format="1">
  <advance width="1024.0"/>
  <unicode hex="02D8"/>
  <outline>
    <contour>
      <point x="725" y="1544" type="qcurve"/>
      <point x="825" y="1544" type="line"/>
      <point x="819.029850746" y="1386.53731343"/>
      <point x="663.492537313" y="1206.0"/>
      <point x="512" y="1206" type="qcurve" smooth="yes"/>
      <point x="360.507462687" y="1206.0"/>
      <point x="204.970149254" y="1386.53731343"/>
      <point x="199" y="1544" type="qcurve"/>
      <point x="299" y="1544" type="line"/>
      <point x="312.432835821" y="1443.25373134"/>
      <point x="415.731343284" y="1341.0"/>
      <point x="512" y="1341" type="qcurve" smooth="yes"/>
      <point x="608.268656716" y="1341.0"/>
      <point x="711.567164179" y="1443.25373134"/>
    </contour>
  </outline>
</glyph>
<glyph name="ring" format="1">
  <advance width="1024.0"/>
  <unicode hex="02DA"/>
  <outline>
    <contour>
      <point x="512" y="1587" type="qcurve" smooth="yes"/>
      <point x="614.23880597" y="1587.0"/>
      <point x="737.0" y="1478.58208955"/>
      <point x="737" y="1395" type="qcurve" smooth="yes"/>
      <point x="737.0" y="1307.68656716"/>
      <point x="614.23880597" y="1198.0"/>
      <point x="512" y="1198" type="qcurve" smooth="yes"/>
      <point x="409.76119403" y="1198.0"/>
      <point x="287.0" y="1307.68656716"/>
      <point x="287" y="1395" type="qcurve" smooth="yes"/>
      <point x="287.0" y="1478.58208955"/>
      <point x="409.76119403" y="1587.0"/>
    </contour>
    <contour>
      <point x="512" y="1278" type="qcurve" smooth="yes"/>
      <point x="559.014925373" y="1278.0"/>
      <point x="621.0" y="1344.25373134"/>
      <point x="621" y="1395" type="qcurve" smooth="yes"/>
      <point x="621.0" y="1443.50746269"/>
      <point x="559.014925373" y="1507.0"/>
      <point x="512" y="1507" type="qcurve" smooth="yes"/>
      <point x="464.985074627" y="1507.0"/>
      <point x="403.0" y="1443.50746269"/>
      <point x="403" y="1395" type="qcurve" smooth="yes"/>
      <point x="403.0" y="1344.25373134"/>
      <point x="464.985074627" y="1278.0"/>
    </contour>
  </outline>
</glyph>
<glyph name="hungarumlaut" format="1">
  <advance width="1024.0"/>
  <unicode hex="02DD"/>
  <outline>
    <contour>
      <point x="285" y="1522" type="line"/>
      <point x="539" y="1522" type="line"/>
      <point x="244" y="1212" type="line"/>
      <point x="111" y="1212" type="line"/>
    </contour>
    <contour>
      <point x="676" y="1522" type="line"/>
      <point x="930" y="1522" type="line"/>
      <point x="637" y="1212" type="line"/>
      <point x="502" y="1212" type="line"/>
    </contour>
  </outline>
</glyph>
<glyph name="quoteleft" format="1">
  <advance width="430.08"/>
  <unicode hex="2018"/>
  <unicode hex="02BB"/>
  <outline>
    <contour>
      <point x="293" y="1475" type="line"/>
      <point x="356" y="969" type="line"/>
      <point x="229" y="969" type="line"/>
      <point x="51" y="1475" type="line"/>
    </contour>
  </outline>
</glyph>
<glyph name="quotedblbase" format="1">
  <advance width="790.528"/>
  <unicode hex="201E"/>
  <outline>
    <contour>
      <point x="121" y="266" type="line"/>
      <point x="358" y="266" type="line"/>
      <point x="182" y="-240" type="line"/>
      <point x="59" y="-240" type="line"/>
    </contour>
    <contour>
      <point x="485" y="266" type="line"/>
      <point x="723" y="266" type="line"/>
      <point x="547" y="-240" type="line"/>
      <point x="424" y="-240" type="line"/>
    </contour>
  </outline>
</glyph>
<glyph name="dagger" format="1">
  <advance width="933.888"/>
  <unicode hex="2020"/>
  <outline>
    <contour>
      <point x="874" y="1102" type="line"/>
      <point x="874" y="924" type="line"/>
      <point x="530" y="977" type="line"/>
      <point x="586" y="702" type="line"/>
      <point x="508" y="0" type="line"/>
      <point x="426" y="0" type="line"/>
      <point x="348" y="702" type="line"/>
      <point x="401" y="977" type="line"/>
      <point x="57" y="924" type="line"/>
      <point x="57" y="1102" type="line"/>
      <point x="401" y="1047" type="line"/>
      <point x="348" y="1475" type="line"/>
      <point x="586" y="1475" type="line"/>
      <point x="530" y="1047" type="line"/>
    </contour>
  </outline>
</glyph>
<glyph name="daggerdbl" format="1">
  <advance width="995.328"/>
  <unicode hex="2021"/>
  <outline>
    <contour>
      <point x="905" y="510" type="line"/>
      <point x="905" y="332" type="line"/>
      <point x="557" y="387" type="line"/>
      <point x="616" y="0" type="line"/>
      <point x="379" y="0" type="line"/>
      <point x="436" y="387" type="line"/>
      <point x="88" y="332" type="line"/>
      <point x="88" y="510" type="line"/>
      <point x="436" y="457" type="line"/>
      <point x="383" y="737" type="line"/>
      <point x="436" y="1018" type="line"/>
      <point x="88" y="965" type="line"/>
      <point x="88" y="1143" type="line"/>
      <point x="436" y="1087" type="line"/>
      <point x="379" y="1475" type="line"/>
      <point x="616" y="1475" type="line"/>
      <point x="557" y="1087" type="line"/>
      <point x="905" y="1143" type="line"/>
      <point x="905" y="965" type="line"/>
      <point x="557" y="1018" type="line"/>
      <point x="610" y="737" type="line"/>
      <point x="557" y="457" type="line"/>
    </contour>
  </outline>
</glyph>
<glyph name="ellipsis" format="1">
  <advance width="1333.248"/>
  <unicode hex="2026"/>
  <outline>
    <contour>
      <point x="211" y="246" type="qcurve" smooth="yes"/>
      <point x="267.71641791" y="246.0"/>
      <point x="342.0" y="171.47761194"/>
      <point x="342" y="117" type="qcurve" smooth="yes"/>
      <point x="342.0" y="60.2835820896"/>
      <point x="267.71641791" y="-14.0"/>
      <point x="211" y="-14" type="qcurve" smooth="yes"/>
      <point x="155.776119403" y="-14.0"/>
      <point x="82.0" y="60.2835820896"/>
      <point x="82" y="117" type="qcurve" smooth="yes"/>
      <point x="82.0" y="171.47761194"/>
      <point x="155.776119403" y="246.0"/>
    </contour>
    <contour>
      <point x="666" y="246" type="qcurve" smooth="yes"/>
      <point x="721.970149254" y="246.0"/>
      <point x="797.0" y="171.47761194"/>
      <point x="797" y="117" type="qcurve" smooth="yes"/>
      <point x="797.0" y="60.2835820896"/>
      <point x="721.970149254" y="-14.0"/>
      <point x="666" y="-14" type="qcurve" smooth="yes"/>
      <point x="610.776119403" y="-14.0"/>
      <point x="537.0" y="60.2835820896"/>
      <point x="537" y="117" type="qcurve" smooth="yes"/>
      <point x="537.0" y="171.47761194"/>
      <point x="610.776119403" y="246.0"/>
    </contour>
    <contour>
      <point x="1120" y="246" type="qcurve" smooth="yes"/>
      <point x="1176.71641791" y="246.0"/>
      <point x="1251.0" y="171.47761194"/>
      <point x="1251" y="117" type="qcurve" smooth="yes"/>
      <point x="1251.0" y="60.2835820896"/>
      <point x="1176.71641791" y="-14.0"/>
      <point x="1120" y="-14" type="qcurve" smooth="yes"/>
      <point x="1065.52238806" y="-14.0"/>
      <point x="991.0" y="60.2835820896"/>
      <point x="991" y="117" type="qcurve" smooth="yes"/>
      <point x="991.0" y="171.47761194"/>
      <point x="1065.52238806" y="246.0"/>
    </contour>
  </outline>
</glyph>
<glyph name="guilsinglleft" format="1">
  <advance width="565.248"/>
  <unicode hex="2039"/>
  <outline>
    <contour>
      <point x="279" y="537" type="line"/>
      <point x="502" y="152" type="line"/>
      <point x="373" y="152" type="line"/>
      <point x="47" y="537" type="line"/>
      <point x="373" y="922" type="line"/>
      <point x="502" y="922" type="line"/>
    </contour>
  </outline>
</glyph>
<glyph name="fraction" format="1">
  <advance width="788.48"/>
  <unicode hex="2044"/>
  <outline>
    <contour>
      <point x="680" y="1505" type="line"/>
      <point x="885" y="1505" type="line"/>
      <point x="106" y="-31" type="line"/>
      <point x="-98" y="-31" type="line"/>
    </contour>
  </outline>
</glyph>
<glyph name="uni2117" format="1">
  <advance width="1695.744"/>
  <unicode hex="2117"/>
  <outline>
    <contour>
      <point x="848" y="1499" type="qcurve" smooth="yes"/>
      <point x="1171.88059701" y="1499.0"/>
      <point x="1610.0" y="1060.88059701"/>
      <point x="1610" y="737" type="qcurve" smooth="yes"/>
      <point x="1610.0" y="414.611940299"/>
      <point x="1169.88059701" y="-25.0"/>
      <point x="846" y="-25" type="qcurve" smooth="yes"/>
      <point x="523.611940299" y="-25.0"/>
      <point x="86.0" y="413.119402985"/>
      <point x="86" y="737" type="qcurve" smooth="yes"/>
      <point x="86.0" y="1059.3880597"/>
      <point x="525.611940299" y="1499.0"/>
    </contour>
    <contour>
      <point x="848" y="47" type="qcurve" smooth="yes"/>
      <point x="1142.7761194" y="47.0"/>
      <point x="1528.0" y="442.223880597"/>
      <point x="1528" y="737" type="qcurve" smooth="yes"/>
      <point x="1528.0" y="1030.28358209"/>
      <point x="1140.7761194" y="1427.0"/>
      <point x="846" y="1427" type="qcurve" smooth="yes"/>
      <point x="552.71641791" y="1427.0"/>
      <point x="168.0" y="1032.52238806"/>
      <point x="168" y="737" type="qcurve" smooth="yes"/>
      <point x="168.0" y="443.71641791"/>
      <point x="554.71641791" y="47.0"/>
    </contour>
    <contour>
      <point x="889" y="1165" type="line" smooth="yes"/>
      <point x="1027.80597015" y="1165.0"/>
      <point x="1190.0" y="1035.3880597"/>
      <point x="1190" y="913" type="qcurve" smooth="yes"/>
      <point x="1190.0" y="786.134328358"/>
      <point x="1028.76119403" y="651.0"/>
      <point x="881" y="651" type="qcurve" smooth="yes"/>
      <point x="768" y="651" type="line"/>
      <point x="768" y="317" type="line"/>
      <point x="608" y="317" type="line"/>
      <point x="608" y="1165" type="line"/>
    </contour>
    <contour>
      <point x="879" y="770" type="line" smooth="yes"/>
      <point x="952.134328358" y="770.0"/>
      <point x="1032.0" y="842.343283582"/>
      <point x="1032" y="911" type="qcurve" smooth="yes"/>
      <point x="1032.0" y="975.179104478"/>
      <point x="952.358208955" y="1047.0"/>
      <point x="874" y="1047" type="qcurve" smooth="yes"/>
      <point x="762" y="1047" type="line"/>
      <point x="762" y="770" type="line"/>
    </contour>
  </outline>
</glyph>
<glyph name="apple" format="1">
  <advance width="1024.0"/>
  <unicode hex="F8FF"/>
  <outline>
    <contour>
      <point x="582" y="442" type="line"/>
      <point x="956" y="389" type="line"/>
      <point x="889" y="186" type="line"/>
      <point x="553" y="369" type="line"/>
      <point x="621" y="0" type="line"/>
      <point x="403" y="0" type="line"/>
      <point x="471" y="369" type="line"/>
      <point x="135" y="186" type="line"/>
      <point x="68" y="389" type="line"/>
      <point x="442" y="442" type="line"/>
      <point x="150" y="731" type="line"/>
      <point x="150" y="743" type="line"/>
      <point x="442" y="1032" type="line"/>
      <point x="68" y="1085" type="line"/>
      <point x="135" y="1288" type="line"/>
      <point x="471" y="1106" type="line"/>
      <point x="403" y="1475" type="line"/>
      <point x="621" y="1475" type="line"/>
      <point x="553" y="1106" type="line"/>
      <point x="889" y="1288" type="line"/>
      <point x="956" y="1085" type="line"/>
      <point x="582" y="1032" type="line"/>
      <point x="874" y="743" type="line"/>
      <point x="874" y="731" type="line"/>
    </contour>
    <contour>
      <point x="512" y="469" type="line"/>
      <point x="676" y="737" type="line"/>
      <point x="512" y="1006" type="line"/>
      <point x="348" y="737" type="line"/>
    </contour>
  </outline>
</glyph>
<glyph name="fi" format="1">
  <advance width="1224.704"/>
  <unicode hex="FB01"/>
  <outline>
    <contour>
      <point x="748" y="1530" type="qcurve"/>
      <point x="748" y="1372" type="line"/>
      <point x="715.910447761" y="1386.17910448"/>
      <point x="642.0" y="1403.0"/>
      <point x="592" y="1403" type="qcurve" smooth="yes"/>
      <point x="523.343283582" y="1403.0"/>
      <point x="451.0" y="1325.8358209"/>
      <point x="451" y="1243" type="qcurve" smooth="yes"/>
      <point x="451" y="1067" type="line"/>
      <point x="713" y="1067" type="line"/>
      <point x="713" y="915" type="line"/>
      <point x="451" y="915" type="line"/>
      <point x="451" y="0" type="line"/>
      <point x="233" y="0" type="line"/>
      <point x="233" y="915" type="line"/>
      <point x="31" y="915" type="line"/>
      <point x="31" y="1067" type="line"/>
      <point x="233" y="1067" type="line"/>
      <point x="233" y="1237" type="line" smooth="yes"/>
      <point x="233.0" y="1394.46268657"/>
      <point x="400.492537313" y="1554.0"/>
      <point x="549" y="1554" type="qcurve" smooth="yes"/>
      <point x="616.164179104" y="1554.0"/>
      <point x="707.701492537" y="1540.44776119"/>
    </contour>
    <contour>
      <point x="1085" y="1073" type="line"/>
      <point x="1085" y="0" type="line"/>
      <point x="866" y="0" type="line"/>
      <point x="866" y="1073" type="line"/>
    </contour>
    <contour>
      <point x="1100" y="1483" type="line"/>
      <point x="1100" y="1278" type="line"/>
      <point x="852" y="1278" type="line"/>
      <point x="852" y="1483" type="line"/>
    </contour>
  </outline>
</glyph>
<glyph name="bullet" format="1">
  <advance width="804.864"/>
  <outline>
    <contour>
      <point x="403" y="1067" type="qcurve" smooth="yes"/>
      <point x="529.865671642" y="1067.0"/>
      <point x="707.0" y="890.865671642"/>
      <point x="707" y="764" type="qcurve" smooth="yes"/>
      <point x="707.0" y="637.134328358"/>
      <point x="529.865671642" y="461.0"/>
      <point x="403" y="461" type="qcurve" smooth="yes"/>
      <point x="276.134328358" y="461.0"/>
      <point x="100.0" y="637.134328358"/>
      <point x="100" y="764" type="qcurve" smooth="yes"/>
      <point x="100.0" y="890.865671642"/>
      <point x="276.134328358" y="1067.0"/>
    </contour>
  </outline>
</glyph>
<glyph name="macron" format="1">
  <advance width="1024.0"/>
  <outline>
    <contour>
      <point x="807" y="1430" type="line"/>
      <point x="807" y="1284" type="line"/>
      <point x="217" y="1284" type="line"/>
      <point x="217" y="1430" type="line"/>
    </contour>
  </outline>
</glyph>
<glyph name="registered" format="1">
  <advance width="1064.96"/>
  <outline>
    <contour>
      <point x="618" y="1004" type="qcurve"/>
      <point x="756" y="780" type="line"/>
      <point x="641" y="780" type="line"/>
      <point x="512" y="991" type="line"/>
      <point x="469" y="991" type="line"/>
      <point x="469" y="780" type="line"/>
      <point x="362" y="780" type="line"/>
      <point x="362" y="1298" type="line"/>
      <point x="545" y="1298" type="line" smooth="yes"/>
      <point x="628.582089552" y="1298.0"/>
      <point x="729.0" y="1221.11940299"/>
      <point x="729" y="1145" type="qcurve" smooth="yes"/>
      <point x="729.0" y="1089.7761194"/>
      <point x="668.746268657" y="1017.43283582"/>
    </contour>
    <contour>
      <point x="532" y="1489" type="qcurve" smooth="yes"/>
      <point x="726.776119403" y="1489.0"/>
      <point x="989.0" y="1226.02985075"/>
      <point x="989" y="1032" type="qcurve" smooth="yes"/>
      <point x="989.0" y="837.970149254"/>
      <point x="726.268656716" y="575.0"/>
      <point x="530" y="575" type="qcurve" smooth="yes"/>
      <point x="337.462686567" y="575.0"/>
      <point x="76.0" y="836.47761194"/>
      <point x="76" y="1032" type="qcurve" smooth="yes"/>
      <point x="76.0" y="1224.53731343"/>
      <point x="337.970149254" y="1489.0"/>
    </contour>
    <contour>
      <point x="532" y="623" type="qcurve" smooth="yes"/>
      <point x="706.626865672" y="623.0"/>
      <point x="934.0" y="858.119402985"/>
      <point x="934" y="1032" type="qcurve" smooth="yes"/>
      <point x="934.0" y="1205.13432836"/>
      <point x="706.119402985" y="1440.0"/>
      <point x="530" y="1440" type="qcurve" smooth="yes"/>
      <point x="357.611940299" y="1440.0"/>
      <point x="129.0" y="1206.62686567"/>
      <point x="129" y="1032" type="qcurve" smooth="yes"/>
      <point x="129.0" y="858.119402985"/>
      <point x="358.119402985" y="623.0"/>
    </contour>
    <contour>
      <point x="537" y="1065" type="line" smooth="yes"/>
      <point x="579.537313433" y="1065.0"/>
      <point x="627.0" y="1105.44776119"/>
      <point x="627" y="1145" type="qcurve" smooth="yes"/>
      <point x="627.0" y="1181.56716418"/>
      <point x="579.029850746" y="1221.0"/>
      <point x="535" y="1221" type="qcurve" smooth="yes"/>
      <point x="463" y="1221" type="line"/>
      <point x="463" y="1065" type="line"/>
    </contour>
  </outline>
</glyph>
